<?xml version="1.0" encoding="utf-8" standalone="no"?>
<!DOCTYPE svg PUBLIC "-//W3C//DTD SVG 1.1//EN"
  "http://www.w3.org/Graphics/SVG/1.1/DTD/svg11.dtd">
<!-- Created with matplotlib (https://matplotlib.org/) -->
<svg height="391.45307pt" version="1.1" viewBox="0 0 424.198125 391.45307" width="424.198125pt" xmlns="http://www.w3.org/2000/svg" xmlns:xlink="http://www.w3.org/1999/xlink">
 <defs>
  <style type="text/css">
*{stroke-linecap:butt;stroke-linejoin:round;}
  </style>
 </defs>
 <g id="figure_1">
  <g id="patch_1">
   <path d="M 0 391.45307 
L 424.198125 391.45307 
L 424.198125 -0 
L 0 -0 
z
" style="fill:#ffffff;"/>
  </g>
  <g id="axes_1">
   <g id="patch_2">
    <path d="M 52.678125 280.512 
L 409.798125 280.512 
L 409.798125 14.4 
L 52.678125 14.4 
z
" style="fill:#ffffff;"/>
   </g>
   <g id="matplotlib.axis_1">
    <g id="xtick_1">
     <g id="line2d_1">
      <defs>
       <path d="M 0 0 
L 0 3.5 
" id="mbab1fd0fd7" style="stroke:#000000;stroke-width:0.8;"/>
      </defs>
      <g>
       <use style="stroke:#000000;stroke-width:0.8;" x="68.910852" xlink:href="#mbab1fd0fd7" y="280.512"/>
      </g>
     </g>
     <g id="text_1">
      <!-- 0 -->
      <defs>
       <path d="M 31.78125 66.40625 
Q 24.171875 66.40625 20.328125 58.90625 
Q 16.5 51.421875 16.5 36.375 
Q 16.5 21.390625 20.328125 13.890625 
Q 24.171875 6.390625 31.78125 6.390625 
Q 39.453125 6.390625 43.28125 13.890625 
Q 47.125 21.390625 47.125 36.375 
Q 47.125 51.421875 43.28125 58.90625 
Q 39.453125 66.40625 31.78125 66.40625 
z
M 31.78125 74.21875 
Q 44.046875 74.21875 50.515625 64.515625 
Q 56.984375 54.828125 56.984375 36.375 
Q 56.984375 17.96875 50.515625 8.265625 
Q 44.046875 -1.421875 31.78125 -1.421875 
Q 19.53125 -1.421875 13.0625 8.265625 
Q 6.59375 17.96875 6.59375 36.375 
Q 6.59375 54.828125 13.0625 64.515625 
Q 19.53125 74.21875 31.78125 74.21875 
z
" id="DejaVuSans-48"/>
      </defs>
      <g transform="translate(65.729602 295.110437)scale(0.1 -0.1)">
       <use xlink:href="#DejaVuSans-48"/>
      </g>
     </g>
    </g>
    <g id="xtick_2">
     <g id="line2d_2">
      <g>
       <use style="stroke:#000000;stroke-width:0.8;" x="137.986287" xlink:href="#mbab1fd0fd7" y="280.512"/>
      </g>
     </g>
     <g id="text_2">
      <!-- 10 -->
      <defs>
       <path d="M 12.40625 8.296875 
L 28.515625 8.296875 
L 28.515625 63.921875 
L 10.984375 60.40625 
L 10.984375 69.390625 
L 28.421875 72.90625 
L 38.28125 72.90625 
L 38.28125 8.296875 
L 54.390625 8.296875 
L 54.390625 0 
L 12.40625 0 
z
" id="DejaVuSans-49"/>
      </defs>
      <g transform="translate(131.623787 295.110437)scale(0.1 -0.1)">
       <use xlink:href="#DejaVuSans-49"/>
       <use x="63.623047" xlink:href="#DejaVuSans-48"/>
      </g>
     </g>
    </g>
    <g id="xtick_3">
     <g id="line2d_3">
      <g>
       <use style="stroke:#000000;stroke-width:0.8;" x="207.061723" xlink:href="#mbab1fd0fd7" y="280.512"/>
      </g>
     </g>
     <g id="text_3">
      <!-- 20 -->
      <defs>
       <path d="M 19.1875 8.296875 
L 53.609375 8.296875 
L 53.609375 0 
L 7.328125 0 
L 7.328125 8.296875 
Q 12.9375 14.109375 22.625 23.890625 
Q 32.328125 33.6875 34.8125 36.53125 
Q 39.546875 41.84375 41.421875 45.53125 
Q 43.3125 49.21875 43.3125 52.78125 
Q 43.3125 58.59375 39.234375 62.25 
Q 35.15625 65.921875 28.609375 65.921875 
Q 23.96875 65.921875 18.8125 64.3125 
Q 13.671875 62.703125 7.8125 59.421875 
L 7.8125 69.390625 
Q 13.765625 71.78125 18.9375 73 
Q 24.125 74.21875 28.421875 74.21875 
Q 39.75 74.21875 46.484375 68.546875 
Q 53.21875 62.890625 53.21875 53.421875 
Q 53.21875 48.921875 51.53125 44.890625 
Q 49.859375 40.875 45.40625 35.40625 
Q 44.1875 33.984375 37.640625 27.21875 
Q 31.109375 20.453125 19.1875 8.296875 
z
" id="DejaVuSans-50"/>
      </defs>
      <g transform="translate(200.699223 295.110437)scale(0.1 -0.1)">
       <use xlink:href="#DejaVuSans-50"/>
       <use x="63.623047" xlink:href="#DejaVuSans-48"/>
      </g>
     </g>
    </g>
    <g id="xtick_4">
     <g id="line2d_4">
      <g>
       <use style="stroke:#000000;stroke-width:0.8;" x="276.137158" xlink:href="#mbab1fd0fd7" y="280.512"/>
      </g>
     </g>
     <g id="text_4">
      <!-- 30 -->
      <defs>
       <path d="M 40.578125 39.3125 
Q 47.65625 37.796875 51.625 33 
Q 55.609375 28.21875 55.609375 21.1875 
Q 55.609375 10.40625 48.1875 4.484375 
Q 40.765625 -1.421875 27.09375 -1.421875 
Q 22.515625 -1.421875 17.65625 -0.515625 
Q 12.796875 0.390625 7.625 2.203125 
L 7.625 11.71875 
Q 11.71875 9.328125 16.59375 8.109375 
Q 21.484375 6.890625 26.8125 6.890625 
Q 36.078125 6.890625 40.9375 10.546875 
Q 45.796875 14.203125 45.796875 21.1875 
Q 45.796875 27.640625 41.28125 31.265625 
Q 36.765625 34.90625 28.71875 34.90625 
L 20.21875 34.90625 
L 20.21875 43.015625 
L 29.109375 43.015625 
Q 36.375 43.015625 40.234375 45.921875 
Q 44.09375 48.828125 44.09375 54.296875 
Q 44.09375 59.90625 40.109375 62.90625 
Q 36.140625 65.921875 28.71875 65.921875 
Q 24.65625 65.921875 20.015625 65.03125 
Q 15.375 64.15625 9.8125 62.3125 
L 9.8125 71.09375 
Q 15.4375 72.65625 20.34375 73.4375 
Q 25.25 74.21875 29.59375 74.21875 
Q 40.828125 74.21875 47.359375 69.109375 
Q 53.90625 64.015625 53.90625 55.328125 
Q 53.90625 49.265625 50.4375 45.09375 
Q 46.96875 40.921875 40.578125 39.3125 
z
" id="DejaVuSans-51"/>
      </defs>
      <g transform="translate(269.774658 295.110437)scale(0.1 -0.1)">
       <use xlink:href="#DejaVuSans-51"/>
       <use x="63.623047" xlink:href="#DejaVuSans-48"/>
      </g>
     </g>
    </g>
    <g id="xtick_5">
     <g id="line2d_5">
      <g>
       <use style="stroke:#000000;stroke-width:0.8;" x="345.212593" xlink:href="#mbab1fd0fd7" y="280.512"/>
      </g>
     </g>
     <g id="text_5">
      <!-- 40 -->
      <defs>
       <path d="M 37.796875 64.3125 
L 12.890625 25.390625 
L 37.796875 25.390625 
z
M 35.203125 72.90625 
L 47.609375 72.90625 
L 47.609375 25.390625 
L 58.015625 25.390625 
L 58.015625 17.1875 
L 47.609375 17.1875 
L 47.609375 0 
L 37.796875 0 
L 37.796875 17.1875 
L 4.890625 17.1875 
L 4.890625 26.703125 
z
" id="DejaVuSans-52"/>
      </defs>
      <g transform="translate(338.850093 295.110437)scale(0.1 -0.1)">
       <use xlink:href="#DejaVuSans-52"/>
       <use x="63.623047" xlink:href="#DejaVuSans-48"/>
      </g>
     </g>
    </g>
    <g id="text_6">
     <!-- Rank -->
     <defs>
      <path d="M 44.390625 34.1875 
Q 47.5625 33.109375 50.5625 29.59375 
Q 53.5625 26.078125 56.59375 19.921875 
L 66.609375 0 
L 56 0 
L 46.6875 18.703125 
Q 43.0625 26.03125 39.671875 28.421875 
Q 36.28125 30.8125 30.421875 30.8125 
L 19.671875 30.8125 
L 19.671875 0 
L 9.8125 0 
L 9.8125 72.90625 
L 32.078125 72.90625 
Q 44.578125 72.90625 50.734375 67.671875 
Q 56.890625 62.453125 56.890625 51.90625 
Q 56.890625 45.015625 53.6875 40.46875 
Q 50.484375 35.9375 44.390625 34.1875 
z
M 19.671875 64.796875 
L 19.671875 38.921875 
L 32.078125 38.921875 
Q 39.203125 38.921875 42.84375 42.21875 
Q 46.484375 45.515625 46.484375 51.90625 
Q 46.484375 58.296875 42.84375 61.546875 
Q 39.203125 64.796875 32.078125 64.796875 
z
" id="DejaVuSans-82"/>
      <path d="M 34.28125 27.484375 
Q 23.390625 27.484375 19.1875 25 
Q 14.984375 22.515625 14.984375 16.5 
Q 14.984375 11.71875 18.140625 8.90625 
Q 21.296875 6.109375 26.703125 6.109375 
Q 34.1875 6.109375 38.703125 11.40625 
Q 43.21875 16.703125 43.21875 25.484375 
L 43.21875 27.484375 
z
M 52.203125 31.203125 
L 52.203125 0 
L 43.21875 0 
L 43.21875 8.296875 
Q 40.140625 3.328125 35.546875 0.953125 
Q 30.953125 -1.421875 24.3125 -1.421875 
Q 15.921875 -1.421875 10.953125 3.296875 
Q 6 8.015625 6 15.921875 
Q 6 25.140625 12.171875 29.828125 
Q 18.359375 34.515625 30.609375 34.515625 
L 43.21875 34.515625 
L 43.21875 35.40625 
Q 43.21875 41.609375 39.140625 45 
Q 35.0625 48.390625 27.6875 48.390625 
Q 23 48.390625 18.546875 47.265625 
Q 14.109375 46.140625 10.015625 43.890625 
L 10.015625 52.203125 
Q 14.9375 54.109375 19.578125 55.046875 
Q 24.21875 56 28.609375 56 
Q 40.484375 56 46.34375 49.84375 
Q 52.203125 43.703125 52.203125 31.203125 
z
" id="DejaVuSans-97"/>
      <path d="M 54.890625 33.015625 
L 54.890625 0 
L 45.90625 0 
L 45.90625 32.71875 
Q 45.90625 40.484375 42.875 44.328125 
Q 39.84375 48.1875 33.796875 48.1875 
Q 26.515625 48.1875 22.3125 43.546875 
Q 18.109375 38.921875 18.109375 30.90625 
L 18.109375 0 
L 9.078125 0 
L 9.078125 54.6875 
L 18.109375 54.6875 
L 18.109375 46.1875 
Q 21.34375 51.125 25.703125 53.5625 
Q 30.078125 56 35.796875 56 
Q 45.21875 56 50.046875 50.171875 
Q 54.890625 44.34375 54.890625 33.015625 
z
" id="DejaVuSans-110"/>
      <path d="M 9.078125 75.984375 
L 18.109375 75.984375 
L 18.109375 31.109375 
L 44.921875 54.6875 
L 56.390625 54.6875 
L 27.390625 29.109375 
L 57.625 0 
L 45.90625 0 
L 18.109375 26.703125 
L 18.109375 0 
L 9.078125 0 
z
" id="DejaVuSans-107"/>
     </defs>
     <g transform="translate(218.748281 308.788562)scale(0.1 -0.1)">
      <use xlink:href="#DejaVuSans-82"/>
      <use x="67.232422" xlink:href="#DejaVuSans-97"/>
      <use x="128.511719" xlink:href="#DejaVuSans-110"/>
      <use x="191.890625" xlink:href="#DejaVuSans-107"/>
     </g>
    </g>
   </g>
   <g id="matplotlib.axis_2">
    <g id="ytick_1">
     <g id="line2d_6">
      <defs>
       <path d="M 0 0 
L -3.5 0 
" id="ma2e4bd4e3b" style="stroke:#000000;stroke-width:0.8;"/>
      </defs>
      <g>
       <use style="stroke:#000000;stroke-width:0.8;" x="52.678125" xlink:href="#ma2e4bd4e3b" y="273.930241"/>
      </g>
     </g>
     <g id="text_7">
      <!-- $\mathdefault{10^{3}}$ -->
      <g transform="translate(28.078125 277.72946)scale(0.1 -0.1)">
       <use transform="translate(0 0.765625)" xlink:href="#DejaVuSans-49"/>
       <use transform="translate(63.623047 0.765625)" xlink:href="#DejaVuSans-48"/>
       <use transform="translate(128.203125 39.046875)scale(0.7)" xlink:href="#DejaVuSans-51"/>
      </g>
     </g>
    </g>
    <g id="ytick_2">
     <g id="line2d_7">
      <g>
       <use style="stroke:#000000;stroke-width:0.8;" x="52.678125" xlink:href="#ma2e4bd4e3b" y="232.01894"/>
      </g>
     </g>
     <g id="text_8">
      <!-- $\mathdefault{10^{4}}$ -->
      <g transform="translate(28.078125 235.818159)scale(0.1 -0.1)">
       <use transform="translate(0 0.684375)" xlink:href="#DejaVuSans-49"/>
       <use transform="translate(63.623047 0.684375)" xlink:href="#DejaVuSans-48"/>
       <use transform="translate(128.203125 38.965625)scale(0.7)" xlink:href="#DejaVuSans-52"/>
      </g>
     </g>
    </g>
    <g id="ytick_3">
     <g id="line2d_8">
      <g>
       <use style="stroke:#000000;stroke-width:0.8;" x="52.678125" xlink:href="#ma2e4bd4e3b" y="190.107638"/>
      </g>
     </g>
     <g id="text_9">
      <!-- $\mathdefault{10^{5}}$ -->
      <defs>
       <path d="M 10.796875 72.90625 
L 49.515625 72.90625 
L 49.515625 64.59375 
L 19.828125 64.59375 
L 19.828125 46.734375 
Q 21.96875 47.46875 24.109375 47.828125 
Q 26.265625 48.1875 28.421875 48.1875 
Q 40.625 48.1875 47.75 41.5 
Q 54.890625 34.8125 54.890625 23.390625 
Q 54.890625 11.625 47.5625 5.09375 
Q 40.234375 -1.421875 26.90625 -1.421875 
Q 22.3125 -1.421875 17.546875 -0.640625 
Q 12.796875 0.140625 7.71875 1.703125 
L 7.71875 11.625 
Q 12.109375 9.234375 16.796875 8.0625 
Q 21.484375 6.890625 26.703125 6.890625 
Q 35.15625 6.890625 40.078125 11.328125 
Q 45.015625 15.765625 45.015625 23.390625 
Q 45.015625 31 40.078125 35.4375 
Q 35.15625 39.890625 26.703125 39.890625 
Q 22.75 39.890625 18.8125 39.015625 
Q 14.890625 38.140625 10.796875 36.28125 
z
" id="DejaVuSans-53"/>
      </defs>
      <g transform="translate(28.078125 193.906857)scale(0.1 -0.1)">
       <use transform="translate(0 0.684375)" xlink:href="#DejaVuSans-49"/>
       <use transform="translate(63.623047 0.684375)" xlink:href="#DejaVuSans-48"/>
       <use transform="translate(128.203125 38.965625)scale(0.7)" xlink:href="#DejaVuSans-53"/>
      </g>
     </g>
    </g>
    <g id="ytick_4">
     <g id="line2d_9">
      <g>
       <use style="stroke:#000000;stroke-width:0.8;" x="52.678125" xlink:href="#ma2e4bd4e3b" y="148.196337"/>
      </g>
     </g>
     <g id="text_10">
      <!-- $\mathdefault{10^{6}}$ -->
      <defs>
       <path d="M 33.015625 40.375 
Q 26.375 40.375 22.484375 35.828125 
Q 18.609375 31.296875 18.609375 23.390625 
Q 18.609375 15.53125 22.484375 10.953125 
Q 26.375 6.390625 33.015625 6.390625 
Q 39.65625 6.390625 43.53125 10.953125 
Q 47.40625 15.53125 47.40625 23.390625 
Q 47.40625 31.296875 43.53125 35.828125 
Q 39.65625 40.375 33.015625 40.375 
z
M 52.59375 71.296875 
L 52.59375 62.3125 
Q 48.875 64.0625 45.09375 64.984375 
Q 41.3125 65.921875 37.59375 65.921875 
Q 27.828125 65.921875 22.671875 59.328125 
Q 17.53125 52.734375 16.796875 39.40625 
Q 19.671875 43.65625 24.015625 45.921875 
Q 28.375 48.1875 33.59375 48.1875 
Q 44.578125 48.1875 50.953125 41.515625 
Q 57.328125 34.859375 57.328125 23.390625 
Q 57.328125 12.15625 50.6875 5.359375 
Q 44.046875 -1.421875 33.015625 -1.421875 
Q 20.359375 -1.421875 13.671875 8.265625 
Q 6.984375 17.96875 6.984375 36.375 
Q 6.984375 53.65625 15.1875 63.9375 
Q 23.390625 74.21875 37.203125 74.21875 
Q 40.921875 74.21875 44.703125 73.484375 
Q 48.484375 72.75 52.59375 71.296875 
z
" id="DejaVuSans-54"/>
      </defs>
      <g transform="translate(28.078125 151.995556)scale(0.1 -0.1)">
       <use transform="translate(0 0.765625)" xlink:href="#DejaVuSans-49"/>
       <use transform="translate(63.623047 0.765625)" xlink:href="#DejaVuSans-48"/>
       <use transform="translate(128.203125 39.046875)scale(0.7)" xlink:href="#DejaVuSans-54"/>
      </g>
     </g>
    </g>
    <g id="ytick_5">
     <g id="line2d_10">
      <g>
       <use style="stroke:#000000;stroke-width:0.8;" x="52.678125" xlink:href="#ma2e4bd4e3b" y="106.285035"/>
      </g>
     </g>
     <g id="text_11">
      <!-- $\mathdefault{10^{7}}$ -->
      <defs>
       <path d="M 8.203125 72.90625 
L 55.078125 72.90625 
L 55.078125 68.703125 
L 28.609375 0 
L 18.3125 0 
L 43.21875 64.59375 
L 8.203125 64.59375 
z
" id="DejaVuSans-55"/>
      </defs>
      <g transform="translate(28.078125 110.084254)scale(0.1 -0.1)">
       <use transform="translate(0 0.684375)" xlink:href="#DejaVuSans-49"/>
       <use transform="translate(63.623047 0.684375)" xlink:href="#DejaVuSans-48"/>
       <use transform="translate(128.203125 38.965625)scale(0.7)" xlink:href="#DejaVuSans-55"/>
      </g>
     </g>
    </g>
    <g id="ytick_6">
     <g id="line2d_11">
      <g>
       <use style="stroke:#000000;stroke-width:0.8;" x="52.678125" xlink:href="#ma2e4bd4e3b" y="64.373734"/>
      </g>
     </g>
     <g id="text_12">
      <!-- $\mathdefault{10^{8}}$ -->
      <defs>
       <path d="M 31.78125 34.625 
Q 24.75 34.625 20.71875 30.859375 
Q 16.703125 27.09375 16.703125 20.515625 
Q 16.703125 13.921875 20.71875 10.15625 
Q 24.75 6.390625 31.78125 6.390625 
Q 38.8125 6.390625 42.859375 10.171875 
Q 46.921875 13.96875 46.921875 20.515625 
Q 46.921875 27.09375 42.890625 30.859375 
Q 38.875 34.625 31.78125 34.625 
z
M 21.921875 38.8125 
Q 15.578125 40.375 12.03125 44.71875 
Q 8.5 49.078125 8.5 55.328125 
Q 8.5 64.0625 14.71875 69.140625 
Q 20.953125 74.21875 31.78125 74.21875 
Q 42.671875 74.21875 48.875 69.140625 
Q 55.078125 64.0625 55.078125 55.328125 
Q 55.078125 49.078125 51.53125 44.71875 
Q 48 40.375 41.703125 38.8125 
Q 48.828125 37.15625 52.796875 32.3125 
Q 56.78125 27.484375 56.78125 20.515625 
Q 56.78125 9.90625 50.3125 4.234375 
Q 43.84375 -1.421875 31.78125 -1.421875 
Q 19.734375 -1.421875 13.25 4.234375 
Q 6.78125 9.90625 6.78125 20.515625 
Q 6.78125 27.484375 10.78125 32.3125 
Q 14.796875 37.15625 21.921875 38.8125 
z
M 18.3125 54.390625 
Q 18.3125 48.734375 21.84375 45.5625 
Q 25.390625 42.390625 31.78125 42.390625 
Q 38.140625 42.390625 41.71875 45.5625 
Q 45.3125 48.734375 45.3125 54.390625 
Q 45.3125 60.0625 41.71875 63.234375 
Q 38.140625 66.40625 31.78125 66.40625 
Q 25.390625 66.40625 21.84375 63.234375 
Q 18.3125 60.0625 18.3125 54.390625 
z
" id="DejaVuSans-56"/>
      </defs>
      <g transform="translate(28.078125 68.172953)scale(0.1 -0.1)">
       <use transform="translate(0 0.765625)" xlink:href="#DejaVuSans-49"/>
       <use transform="translate(63.623047 0.765625)" xlink:href="#DejaVuSans-48"/>
       <use transform="translate(128.203125 39.046875)scale(0.7)" xlink:href="#DejaVuSans-56"/>
      </g>
     </g>
    </g>
    <g id="ytick_7">
     <g id="line2d_12">
      <g>
       <use style="stroke:#000000;stroke-width:0.8;" x="52.678125" xlink:href="#ma2e4bd4e3b" y="22.462433"/>
      </g>
     </g>
     <g id="text_13">
      <!-- $\mathdefault{10^{9}}$ -->
      <defs>
       <path d="M 10.984375 1.515625 
L 10.984375 10.5 
Q 14.703125 8.734375 18.5 7.8125 
Q 22.3125 6.890625 25.984375 6.890625 
Q 35.75 6.890625 40.890625 13.453125 
Q 46.046875 20.015625 46.78125 33.40625 
Q 43.953125 29.203125 39.59375 26.953125 
Q 35.25 24.703125 29.984375 24.703125 
Q 19.046875 24.703125 12.671875 31.3125 
Q 6.296875 37.9375 6.296875 49.421875 
Q 6.296875 60.640625 12.9375 67.421875 
Q 19.578125 74.21875 30.609375 74.21875 
Q 43.265625 74.21875 49.921875 64.515625 
Q 56.59375 54.828125 56.59375 36.375 
Q 56.59375 19.140625 48.40625 8.859375 
Q 40.234375 -1.421875 26.421875 -1.421875 
Q 22.703125 -1.421875 18.890625 -0.6875 
Q 15.09375 0.046875 10.984375 1.515625 
z
M 30.609375 32.421875 
Q 37.25 32.421875 41.125 36.953125 
Q 45.015625 41.5 45.015625 49.421875 
Q 45.015625 57.28125 41.125 61.84375 
Q 37.25 66.40625 30.609375 66.40625 
Q 23.96875 66.40625 20.09375 61.84375 
Q 16.21875 57.28125 16.21875 49.421875 
Q 16.21875 41.5 20.09375 36.953125 
Q 23.96875 32.421875 30.609375 32.421875 
z
" id="DejaVuSans-57"/>
      </defs>
      <g transform="translate(28.078125 26.261651)scale(0.1 -0.1)">
       <use transform="translate(0 0.765625)" xlink:href="#DejaVuSans-49"/>
       <use transform="translate(63.623047 0.765625)" xlink:href="#DejaVuSans-48"/>
       <use transform="translate(128.203125 39.046875)scale(0.7)" xlink:href="#DejaVuSans-57"/>
      </g>
     </g>
    </g>
    <g id="ytick_8">
     <g id="line2d_13">
      <defs>
       <path d="M 0 0 
L -2 0 
" id="m24a78ffa0d" style="stroke:#000000;stroke-width:0.6;"/>
      </defs>
      <g>
       <use style="stroke:#000000;stroke-width:0.6;" x="52.678125" xlink:href="#m24a78ffa0d" y="280.422384"/>
      </g>
     </g>
    </g>
    <g id="ytick_9">
     <g id="line2d_14">
      <g>
       <use style="stroke:#000000;stroke-width:0.6;" x="52.678125" xlink:href="#m24a78ffa0d" y="277.991866"/>
      </g>
     </g>
    </g>
    <g id="ytick_10">
     <g id="line2d_15">
      <g>
       <use style="stroke:#000000;stroke-width:0.6;" x="52.678125" xlink:href="#m24a78ffa0d" y="275.847997"/>
      </g>
     </g>
    </g>
    <g id="ytick_11">
     <g id="line2d_16">
      <g>
       <use style="stroke:#000000;stroke-width:0.6;" x="52.678125" xlink:href="#m24a78ffa0d" y="261.313682"/>
      </g>
     </g>
    </g>
    <g id="ytick_12">
     <g id="line2d_17">
      <g>
       <use style="stroke:#000000;stroke-width:0.6;" x="52.678125" xlink:href="#m24a78ffa0d" y="253.933469"/>
      </g>
     </g>
    </g>
    <g id="ytick_13">
     <g id="line2d_18">
      <g>
       <use style="stroke:#000000;stroke-width:0.6;" x="52.678125" xlink:href="#m24a78ffa0d" y="248.697123"/>
      </g>
     </g>
    </g>
    <g id="ytick_14">
     <g id="line2d_19">
      <g>
       <use style="stroke:#000000;stroke-width:0.6;" x="52.678125" xlink:href="#m24a78ffa0d" y="244.635499"/>
      </g>
     </g>
    </g>
    <g id="ytick_15">
     <g id="line2d_20">
      <g>
       <use style="stroke:#000000;stroke-width:0.6;" x="52.678125" xlink:href="#m24a78ffa0d" y="241.31691"/>
      </g>
     </g>
    </g>
    <g id="ytick_16">
     <g id="line2d_21">
      <g>
       <use style="stroke:#000000;stroke-width:0.6;" x="52.678125" xlink:href="#m24a78ffa0d" y="238.511083"/>
      </g>
     </g>
    </g>
    <g id="ytick_17">
     <g id="line2d_22">
      <g>
       <use style="stroke:#000000;stroke-width:0.6;" x="52.678125" xlink:href="#m24a78ffa0d" y="236.080565"/>
      </g>
     </g>
    </g>
    <g id="ytick_18">
     <g id="line2d_23">
      <g>
       <use style="stroke:#000000;stroke-width:0.6;" x="52.678125" xlink:href="#m24a78ffa0d" y="233.936696"/>
      </g>
     </g>
    </g>
    <g id="ytick_19">
     <g id="line2d_24">
      <g>
       <use style="stroke:#000000;stroke-width:0.6;" x="52.678125" xlink:href="#m24a78ffa0d" y="219.402381"/>
      </g>
     </g>
    </g>
    <g id="ytick_20">
     <g id="line2d_25">
      <g>
       <use style="stroke:#000000;stroke-width:0.6;" x="52.678125" xlink:href="#m24a78ffa0d" y="212.022167"/>
      </g>
     </g>
    </g>
    <g id="ytick_21">
     <g id="line2d_26">
      <g>
       <use style="stroke:#000000;stroke-width:0.6;" x="52.678125" xlink:href="#m24a78ffa0d" y="206.785822"/>
      </g>
     </g>
    </g>
    <g id="ytick_22">
     <g id="line2d_27">
      <g>
       <use style="stroke:#000000;stroke-width:0.6;" x="52.678125" xlink:href="#m24a78ffa0d" y="202.724197"/>
      </g>
     </g>
    </g>
    <g id="ytick_23">
     <g id="line2d_28">
      <g>
       <use style="stroke:#000000;stroke-width:0.6;" x="52.678125" xlink:href="#m24a78ffa0d" y="199.405608"/>
      </g>
     </g>
    </g>
    <g id="ytick_24">
     <g id="line2d_29">
      <g>
       <use style="stroke:#000000;stroke-width:0.6;" x="52.678125" xlink:href="#m24a78ffa0d" y="196.599781"/>
      </g>
     </g>
    </g>
    <g id="ytick_25">
     <g id="line2d_30">
      <g>
       <use style="stroke:#000000;stroke-width:0.6;" x="52.678125" xlink:href="#m24a78ffa0d" y="194.169263"/>
      </g>
     </g>
    </g>
    <g id="ytick_26">
     <g id="line2d_31">
      <g>
       <use style="stroke:#000000;stroke-width:0.6;" x="52.678125" xlink:href="#m24a78ffa0d" y="192.025394"/>
      </g>
     </g>
    </g>
    <g id="ytick_27">
     <g id="line2d_32">
      <g>
       <use style="stroke:#000000;stroke-width:0.6;" x="52.678125" xlink:href="#m24a78ffa0d" y="177.491079"/>
      </g>
     </g>
    </g>
    <g id="ytick_28">
     <g id="line2d_33">
      <g>
       <use style="stroke:#000000;stroke-width:0.6;" x="52.678125" xlink:href="#m24a78ffa0d" y="170.110866"/>
      </g>
     </g>
    </g>
    <g id="ytick_29">
     <g id="line2d_34">
      <g>
       <use style="stroke:#000000;stroke-width:0.6;" x="52.678125" xlink:href="#m24a78ffa0d" y="164.874521"/>
      </g>
     </g>
    </g>
    <g id="ytick_30">
     <g id="line2d_35">
      <g>
       <use style="stroke:#000000;stroke-width:0.6;" x="52.678125" xlink:href="#m24a78ffa0d" y="160.812896"/>
      </g>
     </g>
    </g>
    <g id="ytick_31">
     <g id="line2d_36">
      <g>
       <use style="stroke:#000000;stroke-width:0.6;" x="52.678125" xlink:href="#m24a78ffa0d" y="157.494307"/>
      </g>
     </g>
    </g>
    <g id="ytick_32">
     <g id="line2d_37">
      <g>
       <use style="stroke:#000000;stroke-width:0.6;" x="52.678125" xlink:href="#m24a78ffa0d" y="154.68848"/>
      </g>
     </g>
    </g>
    <g id="ytick_33">
     <g id="line2d_38">
      <g>
       <use style="stroke:#000000;stroke-width:0.6;" x="52.678125" xlink:href="#m24a78ffa0d" y="152.257962"/>
      </g>
     </g>
    </g>
    <g id="ytick_34">
     <g id="line2d_39">
      <g>
       <use style="stroke:#000000;stroke-width:0.6;" x="52.678125" xlink:href="#m24a78ffa0d" y="150.114093"/>
      </g>
     </g>
    </g>
    <g id="ytick_35">
     <g id="line2d_40">
      <g>
       <use style="stroke:#000000;stroke-width:0.6;" x="52.678125" xlink:href="#m24a78ffa0d" y="135.579778"/>
      </g>
     </g>
    </g>
    <g id="ytick_36">
     <g id="line2d_41">
      <g>
       <use style="stroke:#000000;stroke-width:0.6;" x="52.678125" xlink:href="#m24a78ffa0d" y="128.199564"/>
      </g>
     </g>
    </g>
    <g id="ytick_37">
     <g id="line2d_42">
      <g>
       <use style="stroke:#000000;stroke-width:0.6;" x="52.678125" xlink:href="#m24a78ffa0d" y="122.963219"/>
      </g>
     </g>
    </g>
    <g id="ytick_38">
     <g id="line2d_43">
      <g>
       <use style="stroke:#000000;stroke-width:0.6;" x="52.678125" xlink:href="#m24a78ffa0d" y="118.901594"/>
      </g>
     </g>
    </g>
    <g id="ytick_39">
     <g id="line2d_44">
      <g>
       <use style="stroke:#000000;stroke-width:0.6;" x="52.678125" xlink:href="#m24a78ffa0d" y="115.583005"/>
      </g>
     </g>
    </g>
    <g id="ytick_40">
     <g id="line2d_45">
      <g>
       <use style="stroke:#000000;stroke-width:0.6;" x="52.678125" xlink:href="#m24a78ffa0d" y="112.777178"/>
      </g>
     </g>
    </g>
    <g id="ytick_41">
     <g id="line2d_46">
      <g>
       <use style="stroke:#000000;stroke-width:0.6;" x="52.678125" xlink:href="#m24a78ffa0d" y="110.34666"/>
      </g>
     </g>
    </g>
    <g id="ytick_42">
     <g id="line2d_47">
      <g>
       <use style="stroke:#000000;stroke-width:0.6;" x="52.678125" xlink:href="#m24a78ffa0d" y="108.202791"/>
      </g>
     </g>
    </g>
    <g id="ytick_43">
     <g id="line2d_48">
      <g>
       <use style="stroke:#000000;stroke-width:0.6;" x="52.678125" xlink:href="#m24a78ffa0d" y="93.668477"/>
      </g>
     </g>
    </g>
    <g id="ytick_44">
     <g id="line2d_49">
      <g>
       <use style="stroke:#000000;stroke-width:0.6;" x="52.678125" xlink:href="#m24a78ffa0d" y="86.288263"/>
      </g>
     </g>
    </g>
    <g id="ytick_45">
     <g id="line2d_50">
      <g>
       <use style="stroke:#000000;stroke-width:0.6;" x="52.678125" xlink:href="#m24a78ffa0d" y="81.051918"/>
      </g>
     </g>
    </g>
    <g id="ytick_46">
     <g id="line2d_51">
      <g>
       <use style="stroke:#000000;stroke-width:0.6;" x="52.678125" xlink:href="#m24a78ffa0d" y="76.990293"/>
      </g>
     </g>
    </g>
    <g id="ytick_47">
     <g id="line2d_52">
      <g>
       <use style="stroke:#000000;stroke-width:0.6;" x="52.678125" xlink:href="#m24a78ffa0d" y="73.671704"/>
      </g>
     </g>
    </g>
    <g id="ytick_48">
     <g id="line2d_53">
      <g>
       <use style="stroke:#000000;stroke-width:0.6;" x="52.678125" xlink:href="#m24a78ffa0d" y="70.865877"/>
      </g>
     </g>
    </g>
    <g id="ytick_49">
     <g id="line2d_54">
      <g>
       <use style="stroke:#000000;stroke-width:0.6;" x="52.678125" xlink:href="#m24a78ffa0d" y="68.435359"/>
      </g>
     </g>
    </g>
    <g id="ytick_50">
     <g id="line2d_55">
      <g>
       <use style="stroke:#000000;stroke-width:0.6;" x="52.678125" xlink:href="#m24a78ffa0d" y="66.29149"/>
      </g>
     </g>
    </g>
    <g id="ytick_51">
     <g id="line2d_56">
      <g>
       <use style="stroke:#000000;stroke-width:0.6;" x="52.678125" xlink:href="#m24a78ffa0d" y="51.757175"/>
      </g>
     </g>
    </g>
    <g id="ytick_52">
     <g id="line2d_57">
      <g>
       <use style="stroke:#000000;stroke-width:0.6;" x="52.678125" xlink:href="#m24a78ffa0d" y="44.376961"/>
      </g>
     </g>
    </g>
    <g id="ytick_53">
     <g id="line2d_58">
      <g>
       <use style="stroke:#000000;stroke-width:0.6;" x="52.678125" xlink:href="#m24a78ffa0d" y="39.140616"/>
      </g>
     </g>
    </g>
    <g id="ytick_54">
     <g id="line2d_59">
      <g>
       <use style="stroke:#000000;stroke-width:0.6;" x="52.678125" xlink:href="#m24a78ffa0d" y="35.078991"/>
      </g>
     </g>
    </g>
    <g id="ytick_55">
     <g id="line2d_60">
      <g>
       <use style="stroke:#000000;stroke-width:0.6;" x="52.678125" xlink:href="#m24a78ffa0d" y="31.760402"/>
      </g>
     </g>
    </g>
    <g id="ytick_56">
     <g id="line2d_61">
      <g>
       <use style="stroke:#000000;stroke-width:0.6;" x="52.678125" xlink:href="#m24a78ffa0d" y="28.954575"/>
      </g>
     </g>
    </g>
    <g id="ytick_57">
     <g id="line2d_62">
      <g>
       <use style="stroke:#000000;stroke-width:0.6;" x="52.678125" xlink:href="#m24a78ffa0d" y="26.524057"/>
      </g>
     </g>
    </g>
    <g id="ytick_58">
     <g id="line2d_63">
      <g>
       <use style="stroke:#000000;stroke-width:0.6;" x="52.678125" xlink:href="#m24a78ffa0d" y="24.380189"/>
      </g>
     </g>
    </g>
    <g id="text_14">
     <!-- Value -->
     <defs>
      <path d="M 28.609375 0 
L 0.78125 72.90625 
L 11.078125 72.90625 
L 34.1875 11.53125 
L 57.328125 72.90625 
L 67.578125 72.90625 
L 39.796875 0 
z
" id="DejaVuSans-86"/>
      <path d="M 9.421875 75.984375 
L 18.40625 75.984375 
L 18.40625 0 
L 9.421875 0 
z
" id="DejaVuSans-108"/>
      <path d="M 8.5 21.578125 
L 8.5 54.6875 
L 17.484375 54.6875 
L 17.484375 21.921875 
Q 17.484375 14.15625 20.5 10.265625 
Q 23.53125 6.390625 29.59375 6.390625 
Q 36.859375 6.390625 41.078125 11.03125 
Q 45.3125 15.671875 45.3125 23.6875 
L 45.3125 54.6875 
L 54.296875 54.6875 
L 54.296875 0 
L 45.3125 0 
L 45.3125 8.40625 
Q 42.046875 3.421875 37.71875 1 
Q 33.40625 -1.421875 27.6875 -1.421875 
Q 18.265625 -1.421875 13.375 4.4375 
Q 8.5 10.296875 8.5 21.578125 
z
M 31.109375 56 
z
" id="DejaVuSans-117"/>
      <path d="M 56.203125 29.59375 
L 56.203125 25.203125 
L 14.890625 25.203125 
Q 15.484375 15.921875 20.484375 11.0625 
Q 25.484375 6.203125 34.421875 6.203125 
Q 39.59375 6.203125 44.453125 7.46875 
Q 49.3125 8.734375 54.109375 11.28125 
L 54.109375 2.78125 
Q 49.265625 0.734375 44.1875 -0.34375 
Q 39.109375 -1.421875 33.890625 -1.421875 
Q 20.796875 -1.421875 13.15625 6.1875 
Q 5.515625 13.8125 5.515625 26.8125 
Q 5.515625 40.234375 12.765625 48.109375 
Q 20.015625 56 32.328125 56 
Q 43.359375 56 49.78125 48.890625 
Q 56.203125 41.796875 56.203125 29.59375 
z
M 47.21875 32.234375 
Q 47.125 39.59375 43.09375 43.984375 
Q 39.0625 48.390625 32.421875 48.390625 
Q 24.90625 48.390625 20.390625 44.140625 
Q 15.875 39.890625 15.1875 32.171875 
z
" id="DejaVuSans-101"/>
     </defs>
     <g transform="translate(21.998437 161.18725)rotate(-90)scale(0.1 -0.1)">
      <use xlink:href="#DejaVuSans-86"/>
      <use x="60.658203" xlink:href="#DejaVuSans-97"/>
      <use x="121.9375" xlink:href="#DejaVuSans-108"/>
      <use x="149.720703" xlink:href="#DejaVuSans-117"/>
      <use x="213.099609" xlink:href="#DejaVuSans-101"/>
     </g>
    </g>
   </g>
   <g id="line2d_64">
    <path clip-path="url(#p5eb1da3de0)" style="fill:none;stroke:#1f77b4;stroke-linecap:square;stroke-width:1.5;"/>
    <defs>
     <path d="M 0 1.5 
C 0.397805 1.5 0.77937 1.341951 1.06066 1.06066 
C 1.341951 0.77937 1.5 0.397805 1.5 0 
C 1.5 -0.397805 1.341951 -0.77937 1.06066 -1.06066 
C 0.77937 -1.341951 0.397805 -1.5 0 -1.5 
C -0.397805 -1.5 -0.77937 -1.341951 -1.06066 -1.06066 
C -1.341951 -0.77937 -1.5 -0.397805 -1.5 0 
C -1.5 0.397805 -1.341951 0.77937 -1.06066 1.06066 
C -0.77937 1.341951 -0.397805 1.5 0 1.5 
z
" id="mc9c10e69b5" style="stroke:#1f77b4;"/>
    </defs>
    <g clip-path="url(#p5eb1da3de0)"/>
   </g>
   <g id="line2d_65">
    <path clip-path="url(#p5eb1da3de0)" d="M 68.910852 89.064722 
L 75.818396 107.454201 
L 82.725939 106.985475 
L 89.633483 107.351546 
L 96.541026 107.234076 
L 103.44857 107.086138 
L 110.356113 106.97855 
L 117.263657 107.505155 
L 124.1712 107.11777 
L 131.078744 107.051626 
L 137.986287 107.285985 
L 144.893831 107.606769 
L 151.801375 106.833979 
L 158.708918 107.037933 
L 165.616462 107.168979 
L 172.524005 107.319418 
L 179.431549 107.320841 
L 186.339092 107.270503 
L 193.246636 106.752272 
L 200.154179 107.153964 
L 207.061723 107.169053 
L 213.969266 107.135953 
L 220.87681 107.137142 
L 227.784353 107.153949 
L 234.691897 106.571592 
L 241.59944 106.970581 
L 248.506984 107.051451 
L 255.414527 107.622555 
L 262.322071 107.235655 
L 269.229614 106.937535 
L 276.137158 106.491179 
L 283.044701 107.202434 
L 289.952245 107.035 
L 296.859788 107.351695 
L 303.767332 107.202257 
L 310.674875 106.757674 
L 317.582419 106.756683 
L 324.489963 107.238694 
L 331.397506 107.608275 
L 338.30505 107.153817 
L 345.212593 107.457023 
L 352.120137 106.90765 
L 359.02768 107.146769 
L 365.935224 107.287582 
L 372.842767 107.369802 
L 379.750311 107.235655 
L 386.657854 107.270503 
L 393.565398 107.521601 
" style="fill:none;stroke:#ff7f0e;stroke-linecap:square;stroke-width:1.5;"/>
    <defs>
     <path d="M 0 1.5 
C 0.397805 1.5 0.77937 1.341951 1.06066 1.06066 
C 1.341951 0.77937 1.5 0.397805 1.5 0 
C 1.5 -0.397805 1.341951 -0.77937 1.06066 -1.06066 
C 0.77937 -1.341951 0.397805 -1.5 0 -1.5 
C -0.397805 -1.5 -0.77937 -1.341951 -1.06066 -1.06066 
C -1.341951 -0.77937 -1.5 -0.397805 -1.5 0 
C -1.5 0.397805 -1.341951 0.77937 -1.06066 1.06066 
C -0.77937 1.341951 -0.397805 1.5 0 1.5 
z
" id="ma8efe8b72b" style="stroke:#ff7f0e;"/>
    </defs>
    <g clip-path="url(#p5eb1da3de0)">
     <use style="fill:#ff7f0e;stroke:#ff7f0e;" x="68.910852" xlink:href="#ma8efe8b72b" y="89.064722"/>
     <use style="fill:#ff7f0e;stroke:#ff7f0e;" x="75.818396" xlink:href="#ma8efe8b72b" y="107.454201"/>
     <use style="fill:#ff7f0e;stroke:#ff7f0e;" x="82.725939" xlink:href="#ma8efe8b72b" y="106.985475"/>
     <use style="fill:#ff7f0e;stroke:#ff7f0e;" x="89.633483" xlink:href="#ma8efe8b72b" y="107.351546"/>
     <use style="fill:#ff7f0e;stroke:#ff7f0e;" x="96.541026" xlink:href="#ma8efe8b72b" y="107.234076"/>
     <use style="fill:#ff7f0e;stroke:#ff7f0e;" x="103.44857" xlink:href="#ma8efe8b72b" y="107.086138"/>
     <use style="fill:#ff7f0e;stroke:#ff7f0e;" x="110.356113" xlink:href="#ma8efe8b72b" y="106.97855"/>
     <use style="fill:#ff7f0e;stroke:#ff7f0e;" x="117.263657" xlink:href="#ma8efe8b72b" y="107.505155"/>
     <use style="fill:#ff7f0e;stroke:#ff7f0e;" x="124.1712" xlink:href="#ma8efe8b72b" y="107.11777"/>
     <use style="fill:#ff7f0e;stroke:#ff7f0e;" x="131.078744" xlink:href="#ma8efe8b72b" y="107.051626"/>
     <use style="fill:#ff7f0e;stroke:#ff7f0e;" x="137.986287" xlink:href="#ma8efe8b72b" y="107.285985"/>
     <use style="fill:#ff7f0e;stroke:#ff7f0e;" x="144.893831" xlink:href="#ma8efe8b72b" y="107.606769"/>
     <use style="fill:#ff7f0e;stroke:#ff7f0e;" x="151.801375" xlink:href="#ma8efe8b72b" y="106.833979"/>
     <use style="fill:#ff7f0e;stroke:#ff7f0e;" x="158.708918" xlink:href="#ma8efe8b72b" y="107.037933"/>
     <use style="fill:#ff7f0e;stroke:#ff7f0e;" x="165.616462" xlink:href="#ma8efe8b72b" y="107.168979"/>
     <use style="fill:#ff7f0e;stroke:#ff7f0e;" x="172.524005" xlink:href="#ma8efe8b72b" y="107.319418"/>
     <use style="fill:#ff7f0e;stroke:#ff7f0e;" x="179.431549" xlink:href="#ma8efe8b72b" y="107.320841"/>
     <use style="fill:#ff7f0e;stroke:#ff7f0e;" x="186.339092" xlink:href="#ma8efe8b72b" y="107.270503"/>
     <use style="fill:#ff7f0e;stroke:#ff7f0e;" x="193.246636" xlink:href="#ma8efe8b72b" y="106.752272"/>
     <use style="fill:#ff7f0e;stroke:#ff7f0e;" x="200.154179" xlink:href="#ma8efe8b72b" y="107.153964"/>
     <use style="fill:#ff7f0e;stroke:#ff7f0e;" x="207.061723" xlink:href="#ma8efe8b72b" y="107.169053"/>
     <use style="fill:#ff7f0e;stroke:#ff7f0e;" x="213.969266" xlink:href="#ma8efe8b72b" y="107.135953"/>
     <use style="fill:#ff7f0e;stroke:#ff7f0e;" x="220.87681" xlink:href="#ma8efe8b72b" y="107.137142"/>
     <use style="fill:#ff7f0e;stroke:#ff7f0e;" x="227.784353" xlink:href="#ma8efe8b72b" y="107.153949"/>
     <use style="fill:#ff7f0e;stroke:#ff7f0e;" x="234.691897" xlink:href="#ma8efe8b72b" y="106.571592"/>
     <use style="fill:#ff7f0e;stroke:#ff7f0e;" x="241.59944" xlink:href="#ma8efe8b72b" y="106.970581"/>
     <use style="fill:#ff7f0e;stroke:#ff7f0e;" x="248.506984" xlink:href="#ma8efe8b72b" y="107.051451"/>
     <use style="fill:#ff7f0e;stroke:#ff7f0e;" x="255.414527" xlink:href="#ma8efe8b72b" y="107.622555"/>
     <use style="fill:#ff7f0e;stroke:#ff7f0e;" x="262.322071" xlink:href="#ma8efe8b72b" y="107.235655"/>
     <use style="fill:#ff7f0e;stroke:#ff7f0e;" x="269.229614" xlink:href="#ma8efe8b72b" y="106.937535"/>
     <use style="fill:#ff7f0e;stroke:#ff7f0e;" x="276.137158" xlink:href="#ma8efe8b72b" y="106.491179"/>
     <use style="fill:#ff7f0e;stroke:#ff7f0e;" x="283.044701" xlink:href="#ma8efe8b72b" y="107.202434"/>
     <use style="fill:#ff7f0e;stroke:#ff7f0e;" x="289.952245" xlink:href="#ma8efe8b72b" y="107.035"/>
     <use style="fill:#ff7f0e;stroke:#ff7f0e;" x="296.859788" xlink:href="#ma8efe8b72b" y="107.351695"/>
     <use style="fill:#ff7f0e;stroke:#ff7f0e;" x="303.767332" xlink:href="#ma8efe8b72b" y="107.202257"/>
     <use style="fill:#ff7f0e;stroke:#ff7f0e;" x="310.674875" xlink:href="#ma8efe8b72b" y="106.757674"/>
     <use style="fill:#ff7f0e;stroke:#ff7f0e;" x="317.582419" xlink:href="#ma8efe8b72b" y="106.756683"/>
     <use style="fill:#ff7f0e;stroke:#ff7f0e;" x="324.489963" xlink:href="#ma8efe8b72b" y="107.238694"/>
     <use style="fill:#ff7f0e;stroke:#ff7f0e;" x="331.397506" xlink:href="#ma8efe8b72b" y="107.608275"/>
     <use style="fill:#ff7f0e;stroke:#ff7f0e;" x="338.30505" xlink:href="#ma8efe8b72b" y="107.153817"/>
     <use style="fill:#ff7f0e;stroke:#ff7f0e;" x="345.212593" xlink:href="#ma8efe8b72b" y="107.457023"/>
     <use style="fill:#ff7f0e;stroke:#ff7f0e;" x="352.120137" xlink:href="#ma8efe8b72b" y="106.90765"/>
     <use style="fill:#ff7f0e;stroke:#ff7f0e;" x="359.02768" xlink:href="#ma8efe8b72b" y="107.146769"/>
     <use style="fill:#ff7f0e;stroke:#ff7f0e;" x="365.935224" xlink:href="#ma8efe8b72b" y="107.287582"/>
     <use style="fill:#ff7f0e;stroke:#ff7f0e;" x="372.842767" xlink:href="#ma8efe8b72b" y="107.369802"/>
     <use style="fill:#ff7f0e;stroke:#ff7f0e;" x="379.750311" xlink:href="#ma8efe8b72b" y="107.235655"/>
     <use style="fill:#ff7f0e;stroke:#ff7f0e;" x="386.657854" xlink:href="#ma8efe8b72b" y="107.270503"/>
     <use style="fill:#ff7f0e;stroke:#ff7f0e;" x="393.565398" xlink:href="#ma8efe8b72b" y="107.521601"/>
    </g>
   </g>
   <g id="line2d_66">
    <path clip-path="url(#p5eb1da3de0)" d="M 68.910852 83.860583 
L 75.818396 72.634153 
L 82.725939 65.447578 
L 89.633483 61.057983 
L 96.541026 67.725778 
L 103.44857 101.360042 
L 110.356113 56.306016 
L 117.263657 83.860583 
L 124.1712 66.654772 
L 131.078744 81.363269 
L 137.986287 84.964063 
L 144.893831 75.952742 
L 151.801375 90.583619 
L 158.708918 71.513686 
L 165.616462 63.953254 
L 172.524005 71.244024 
L 179.431549 70.978299 
L 186.339092 68.630404 
L 193.246636 83.594857 
L 200.154179 69.828326 
L 207.061723 58.427808 
L 213.969266 97.020521 
L 220.87681 66.654772 
L 227.784353 76.840813 
L 234.691897 74.616227 
L 241.59944 74.139295 
L 248.506984 69.704923 
L 255.414527 81.598135 
L 262.322071 69.582351 
L 269.229614 63.686229 
L 276.137158 78.161734 
L 283.044701 69.828326 
L 289.952245 65.741954 
L 296.859788 93.069546 
L 303.767332 64.96729 
L 310.674875 67.615797 
L 317.582419 81.598135 
L 324.489963 68.74671 
L 331.397506 80.676325 
L 338.30505 66.551058 
L 345.212593 55.387115 
L 352.120137 84.130245 
L 359.02768 84.130245 
L 365.935224 90.583619 
L 372.842767 61.680329 
L 379.750311 84.403962 
L 386.657854 56.306016 
L 393.565398 68.863764 
" style="fill:none;stroke:#2ca02c;stroke-linecap:square;stroke-width:1.5;"/>
    <defs>
     <path d="M 0 1.5 
C 0.397805 1.5 0.77937 1.341951 1.06066 1.06066 
C 1.341951 0.77937 1.5 0.397805 1.5 0 
C 1.5 -0.397805 1.341951 -0.77937 1.06066 -1.06066 
C 0.77937 -1.341951 0.397805 -1.5 0 -1.5 
C -0.397805 -1.5 -0.77937 -1.341951 -1.06066 -1.06066 
C -1.341951 -0.77937 -1.5 -0.397805 -1.5 0 
C -1.5 0.397805 -1.341951 0.77937 -1.06066 1.06066 
C -0.77937 1.341951 -0.397805 1.5 0 1.5 
z
" id="m83a9146de7" style="stroke:#2ca02c;"/>
    </defs>
    <g clip-path="url(#p5eb1da3de0)">
     <use style="fill:#2ca02c;stroke:#2ca02c;" x="68.910852" xlink:href="#m83a9146de7" y="83.860583"/>
     <use style="fill:#2ca02c;stroke:#2ca02c;" x="75.818396" xlink:href="#m83a9146de7" y="72.634153"/>
     <use style="fill:#2ca02c;stroke:#2ca02c;" x="82.725939" xlink:href="#m83a9146de7" y="65.447578"/>
     <use style="fill:#2ca02c;stroke:#2ca02c;" x="89.633483" xlink:href="#m83a9146de7" y="61.057983"/>
     <use style="fill:#2ca02c;stroke:#2ca02c;" x="96.541026" xlink:href="#m83a9146de7" y="67.725778"/>
     <use style="fill:#2ca02c;stroke:#2ca02c;" x="103.44857" xlink:href="#m83a9146de7" y="101.360042"/>
     <use style="fill:#2ca02c;stroke:#2ca02c;" x="110.356113" xlink:href="#m83a9146de7" y="56.306016"/>
     <use style="fill:#2ca02c;stroke:#2ca02c;" x="117.263657" xlink:href="#m83a9146de7" y="83.860583"/>
     <use style="fill:#2ca02c;stroke:#2ca02c;" x="124.1712" xlink:href="#m83a9146de7" y="66.654772"/>
     <use style="fill:#2ca02c;stroke:#2ca02c;" x="131.078744" xlink:href="#m83a9146de7" y="81.363269"/>
     <use style="fill:#2ca02c;stroke:#2ca02c;" x="137.986287" xlink:href="#m83a9146de7" y="84.964063"/>
     <use style="fill:#2ca02c;stroke:#2ca02c;" x="144.893831" xlink:href="#m83a9146de7" y="75.952742"/>
     <use style="fill:#2ca02c;stroke:#2ca02c;" x="151.801375" xlink:href="#m83a9146de7" y="90.583619"/>
     <use style="fill:#2ca02c;stroke:#2ca02c;" x="158.708918" xlink:href="#m83a9146de7" y="71.513686"/>
     <use style="fill:#2ca02c;stroke:#2ca02c;" x="165.616462" xlink:href="#m83a9146de7" y="63.953254"/>
     <use style="fill:#2ca02c;stroke:#2ca02c;" x="172.524005" xlink:href="#m83a9146de7" y="71.244024"/>
     <use style="fill:#2ca02c;stroke:#2ca02c;" x="179.431549" xlink:href="#m83a9146de7" y="70.978299"/>
     <use style="fill:#2ca02c;stroke:#2ca02c;" x="186.339092" xlink:href="#m83a9146de7" y="68.630404"/>
     <use style="fill:#2ca02c;stroke:#2ca02c;" x="193.246636" xlink:href="#m83a9146de7" y="83.594857"/>
     <use style="fill:#2ca02c;stroke:#2ca02c;" x="200.154179" xlink:href="#m83a9146de7" y="69.828326"/>
     <use style="fill:#2ca02c;stroke:#2ca02c;" x="207.061723" xlink:href="#m83a9146de7" y="58.427808"/>
     <use style="fill:#2ca02c;stroke:#2ca02c;" x="213.969266" xlink:href="#m83a9146de7" y="97.020521"/>
     <use style="fill:#2ca02c;stroke:#2ca02c;" x="220.87681" xlink:href="#m83a9146de7" y="66.654772"/>
     <use style="fill:#2ca02c;stroke:#2ca02c;" x="227.784353" xlink:href="#m83a9146de7" y="76.840813"/>
     <use style="fill:#2ca02c;stroke:#2ca02c;" x="234.691897" xlink:href="#m83a9146de7" y="74.616227"/>
     <use style="fill:#2ca02c;stroke:#2ca02c;" x="241.59944" xlink:href="#m83a9146de7" y="74.139295"/>
     <use style="fill:#2ca02c;stroke:#2ca02c;" x="248.506984" xlink:href="#m83a9146de7" y="69.704923"/>
     <use style="fill:#2ca02c;stroke:#2ca02c;" x="255.414527" xlink:href="#m83a9146de7" y="81.598135"/>
     <use style="fill:#2ca02c;stroke:#2ca02c;" x="262.322071" xlink:href="#m83a9146de7" y="69.582351"/>
     <use style="fill:#2ca02c;stroke:#2ca02c;" x="269.229614" xlink:href="#m83a9146de7" y="63.686229"/>
     <use style="fill:#2ca02c;stroke:#2ca02c;" x="276.137158" xlink:href="#m83a9146de7" y="78.161734"/>
     <use style="fill:#2ca02c;stroke:#2ca02c;" x="283.044701" xlink:href="#m83a9146de7" y="69.828326"/>
     <use style="fill:#2ca02c;stroke:#2ca02c;" x="289.952245" xlink:href="#m83a9146de7" y="65.741954"/>
     <use style="fill:#2ca02c;stroke:#2ca02c;" x="296.859788" xlink:href="#m83a9146de7" y="93.069546"/>
     <use style="fill:#2ca02c;stroke:#2ca02c;" x="303.767332" xlink:href="#m83a9146de7" y="64.96729"/>
     <use style="fill:#2ca02c;stroke:#2ca02c;" x="310.674875" xlink:href="#m83a9146de7" y="67.615797"/>
     <use style="fill:#2ca02c;stroke:#2ca02c;" x="317.582419" xlink:href="#m83a9146de7" y="81.598135"/>
     <use style="fill:#2ca02c;stroke:#2ca02c;" x="324.489963" xlink:href="#m83a9146de7" y="68.74671"/>
     <use style="fill:#2ca02c;stroke:#2ca02c;" x="331.397506" xlink:href="#m83a9146de7" y="80.676325"/>
     <use style="fill:#2ca02c;stroke:#2ca02c;" x="338.30505" xlink:href="#m83a9146de7" y="66.551058"/>
     <use style="fill:#2ca02c;stroke:#2ca02c;" x="345.212593" xlink:href="#m83a9146de7" y="55.387115"/>
     <use style="fill:#2ca02c;stroke:#2ca02c;" x="352.120137" xlink:href="#m83a9146de7" y="84.130245"/>
     <use style="fill:#2ca02c;stroke:#2ca02c;" x="359.02768" xlink:href="#m83a9146de7" y="84.130245"/>
     <use style="fill:#2ca02c;stroke:#2ca02c;" x="365.935224" xlink:href="#m83a9146de7" y="90.583619"/>
     <use style="fill:#2ca02c;stroke:#2ca02c;" x="372.842767" xlink:href="#m83a9146de7" y="61.680329"/>
     <use style="fill:#2ca02c;stroke:#2ca02c;" x="379.750311" xlink:href="#m83a9146de7" y="84.403962"/>
     <use style="fill:#2ca02c;stroke:#2ca02c;" x="386.657854" xlink:href="#m83a9146de7" y="56.306016"/>
     <use style="fill:#2ca02c;stroke:#2ca02c;" x="393.565398" xlink:href="#m83a9146de7" y="68.863764"/>
    </g>
   </g>
   <g id="line2d_67">
    <path clip-path="url(#p5eb1da3de0)" d="M 68.910852 231.699723 
L 75.818396 237.785657 
L 82.725939 237.255285 
L 89.633483 237.670698 
L 96.541026 237.55646 
L 103.44857 237.367642 
L 110.356113 236.185879 
L 117.263657 237.84341 
L 124.1712 237.424082 
L 131.078744 237.330113 
L 137.986287 237.59446 
L 144.893831 237.959469 
L 151.801375 236.045595 
L 158.708918 237.311377 
L 165.616462 237.461806 
L 172.524005 237.632539 
L 179.431549 237.651608 
L 186.339092 237.57545 
L 193.246636 235.941086 
L 200.154179 237.442934 
L 207.061723 237.480698 
L 213.969266 237.424082 
L 220.87681 237.424082 
L 227.784353 237.442934 
L 234.691897 235.768228 
L 241.59944 237.236626 
L 248.506984 237.330113 
L 255.414527 237.978885 
L 262.322071 237.55646 
L 269.229614 237.199365 
L 276.137158 235.665295 
L 283.044701 237.499609 
L 289.952245 237.330113 
L 296.859788 237.670698 
L 303.767332 237.499609 
L 310.674875 236.995784 
L 317.582419 235.958463 
L 324.489963 237.53749 
L 331.397506 237.959469 
L 338.30505 237.442934 
L 345.212593 237.804888 
L 352.120137 237.162181 
L 359.02768 236.362769 
L 365.935224 237.59446 
L 372.842767 237.708937 
L 379.750311 237.53749 
L 386.657854 237.57545 
L 393.565398 237.862702 
" style="fill:none;stroke:#d62728;stroke-linecap:square;stroke-width:1.5;"/>
    <defs>
     <path d="M 0 1.5 
C 0.397805 1.5 0.77937 1.341951 1.06066 1.06066 
C 1.341951 0.77937 1.5 0.397805 1.5 0 
C 1.5 -0.397805 1.341951 -0.77937 1.06066 -1.06066 
C 0.77937 -1.341951 0.397805 -1.5 0 -1.5 
C -0.397805 -1.5 -0.77937 -1.341951 -1.06066 -1.06066 
C -1.341951 -0.77937 -1.5 -0.397805 -1.5 0 
C -1.5 0.397805 -1.341951 0.77937 -1.06066 1.06066 
C -0.77937 1.341951 -0.397805 1.5 0 1.5 
z
" id="m38276a4fc9" style="stroke:#d62728;"/>
    </defs>
    <g clip-path="url(#p5eb1da3de0)">
     <use style="fill:#d62728;stroke:#d62728;" x="68.910852" xlink:href="#m38276a4fc9" y="231.699723"/>
     <use style="fill:#d62728;stroke:#d62728;" x="75.818396" xlink:href="#m38276a4fc9" y="237.785657"/>
     <use style="fill:#d62728;stroke:#d62728;" x="82.725939" xlink:href="#m38276a4fc9" y="237.255285"/>
     <use style="fill:#d62728;stroke:#d62728;" x="89.633483" xlink:href="#m38276a4fc9" y="237.670698"/>
     <use style="fill:#d62728;stroke:#d62728;" x="96.541026" xlink:href="#m38276a4fc9" y="237.55646"/>
     <use style="fill:#d62728;stroke:#d62728;" x="103.44857" xlink:href="#m38276a4fc9" y="237.367642"/>
     <use style="fill:#d62728;stroke:#d62728;" x="110.356113" xlink:href="#m38276a4fc9" y="236.185879"/>
     <use style="fill:#d62728;stroke:#d62728;" x="117.263657" xlink:href="#m38276a4fc9" y="237.84341"/>
     <use style="fill:#d62728;stroke:#d62728;" x="124.1712" xlink:href="#m38276a4fc9" y="237.424082"/>
     <use style="fill:#d62728;stroke:#d62728;" x="131.078744" xlink:href="#m38276a4fc9" y="237.330113"/>
     <use style="fill:#d62728;stroke:#d62728;" x="137.986287" xlink:href="#m38276a4fc9" y="237.59446"/>
     <use style="fill:#d62728;stroke:#d62728;" x="144.893831" xlink:href="#m38276a4fc9" y="237.959469"/>
     <use style="fill:#d62728;stroke:#d62728;" x="151.801375" xlink:href="#m38276a4fc9" y="236.045595"/>
     <use style="fill:#d62728;stroke:#d62728;" x="158.708918" xlink:href="#m38276a4fc9" y="237.311377"/>
     <use style="fill:#d62728;stroke:#d62728;" x="165.616462" xlink:href="#m38276a4fc9" y="237.461806"/>
     <use style="fill:#d62728;stroke:#d62728;" x="172.524005" xlink:href="#m38276a4fc9" y="237.632539"/>
     <use style="fill:#d62728;stroke:#d62728;" x="179.431549" xlink:href="#m38276a4fc9" y="237.651608"/>
     <use style="fill:#d62728;stroke:#d62728;" x="186.339092" xlink:href="#m38276a4fc9" y="237.57545"/>
     <use style="fill:#d62728;stroke:#d62728;" x="193.246636" xlink:href="#m38276a4fc9" y="235.941086"/>
     <use style="fill:#d62728;stroke:#d62728;" x="200.154179" xlink:href="#m38276a4fc9" y="237.442934"/>
     <use style="fill:#d62728;stroke:#d62728;" x="207.061723" xlink:href="#m38276a4fc9" y="237.480698"/>
     <use style="fill:#d62728;stroke:#d62728;" x="213.969266" xlink:href="#m38276a4fc9" y="237.424082"/>
     <use style="fill:#d62728;stroke:#d62728;" x="220.87681" xlink:href="#m38276a4fc9" y="237.424082"/>
     <use style="fill:#d62728;stroke:#d62728;" x="227.784353" xlink:href="#m38276a4fc9" y="237.442934"/>
     <use style="fill:#d62728;stroke:#d62728;" x="234.691897" xlink:href="#m38276a4fc9" y="235.768228"/>
     <use style="fill:#d62728;stroke:#d62728;" x="241.59944" xlink:href="#m38276a4fc9" y="237.236626"/>
     <use style="fill:#d62728;stroke:#d62728;" x="248.506984" xlink:href="#m38276a4fc9" y="237.330113"/>
     <use style="fill:#d62728;stroke:#d62728;" x="255.414527" xlink:href="#m38276a4fc9" y="237.978885"/>
     <use style="fill:#d62728;stroke:#d62728;" x="262.322071" xlink:href="#m38276a4fc9" y="237.55646"/>
     <use style="fill:#d62728;stroke:#d62728;" x="269.229614" xlink:href="#m38276a4fc9" y="237.199365"/>
     <use style="fill:#d62728;stroke:#d62728;" x="276.137158" xlink:href="#m38276a4fc9" y="235.665295"/>
     <use style="fill:#d62728;stroke:#d62728;" x="283.044701" xlink:href="#m38276a4fc9" y="237.499609"/>
     <use style="fill:#d62728;stroke:#d62728;" x="289.952245" xlink:href="#m38276a4fc9" y="237.330113"/>
     <use style="fill:#d62728;stroke:#d62728;" x="296.859788" xlink:href="#m38276a4fc9" y="237.670698"/>
     <use style="fill:#d62728;stroke:#d62728;" x="303.767332" xlink:href="#m38276a4fc9" y="237.499609"/>
     <use style="fill:#d62728;stroke:#d62728;" x="310.674875" xlink:href="#m38276a4fc9" y="236.995784"/>
     <use style="fill:#d62728;stroke:#d62728;" x="317.582419" xlink:href="#m38276a4fc9" y="235.958463"/>
     <use style="fill:#d62728;stroke:#d62728;" x="324.489963" xlink:href="#m38276a4fc9" y="237.53749"/>
     <use style="fill:#d62728;stroke:#d62728;" x="331.397506" xlink:href="#m38276a4fc9" y="237.959469"/>
     <use style="fill:#d62728;stroke:#d62728;" x="338.30505" xlink:href="#m38276a4fc9" y="237.442934"/>
     <use style="fill:#d62728;stroke:#d62728;" x="345.212593" xlink:href="#m38276a4fc9" y="237.804888"/>
     <use style="fill:#d62728;stroke:#d62728;" x="352.120137" xlink:href="#m38276a4fc9" y="237.162181"/>
     <use style="fill:#d62728;stroke:#d62728;" x="359.02768" xlink:href="#m38276a4fc9" y="236.362769"/>
     <use style="fill:#d62728;stroke:#d62728;" x="365.935224" xlink:href="#m38276a4fc9" y="237.59446"/>
     <use style="fill:#d62728;stroke:#d62728;" x="372.842767" xlink:href="#m38276a4fc9" y="237.708937"/>
     <use style="fill:#d62728;stroke:#d62728;" x="379.750311" xlink:href="#m38276a4fc9" y="237.53749"/>
     <use style="fill:#d62728;stroke:#d62728;" x="386.657854" xlink:href="#m38276a4fc9" y="237.57545"/>
     <use style="fill:#d62728;stroke:#d62728;" x="393.565398" xlink:href="#m38276a4fc9" y="237.862702"/>
    </g>
   </g>
   <g id="line2d_68">
    <path clip-path="url(#p5eb1da3de0)" d="M 68.910852 224.123371 
L 75.818396 264.688363 
L 82.725939 262.922925 
L 89.633483 267.706089 
L 96.541026 255.542711 
L 103.44857 265.818196 
L 110.356113 261.738647 
L 117.263657 263.70424 
L 124.1712 250.383006 
L 131.078744 267.606896 
L 137.986287 268.416 
L 144.893831 267.118881 
L 151.801375 264.772827 
L 158.708918 268.210327 
L 165.616462 267.118881 
L 172.524005 266.364293 
L 179.431549 260.830113 
L 186.339092 258.891917 
L 193.246636 262.173772 
L 200.154179 260.29275 
L 207.061723 254.027051 
L 213.969266 251.987731 
L 220.87681 254.263136 
L 227.784353 253.42719 
L 234.691897 246.275358 
L 241.59944 247.154239 
L 248.506984 247.122109 
L 255.414527 254.074024 
L 262.322071 244.468252 
L 269.229614 247.511468 
L 276.137158 247.348221 
L 283.044701 252.412036 
L 289.952245 255.13933 
L 296.859788 254.074024 
L 303.767332 259.642615 
L 310.674875 253.609666 
L 317.582419 252.113987 
L 324.489963 253.933469 
L 331.397506 254.168334 
L 338.30505 254.990337 
L 345.212593 239.018131 
L 352.120137 244.974673 
L 359.02768 244.468252 
L 365.935224 244.635499 
L 372.842767 260.029903 
L 379.750311 263.466304 
L 386.657854 262.395298 
L 393.565398 260.160852 
" style="fill:none;stroke:#9467bd;stroke-linecap:square;stroke-width:1.5;"/>
    <defs>
     <path d="M 0 1.5 
C 0.397805 1.5 0.77937 1.341951 1.06066 1.06066 
C 1.341951 0.77937 1.5 0.397805 1.5 0 
C 1.5 -0.397805 1.341951 -0.77937 1.06066 -1.06066 
C 0.77937 -1.341951 0.397805 -1.5 0 -1.5 
C -0.397805 -1.5 -0.77937 -1.341951 -1.06066 -1.06066 
C -1.341951 -0.77937 -1.5 -0.397805 -1.5 0 
C -1.5 0.397805 -1.341951 0.77937 -1.06066 1.06066 
C -0.77937 1.341951 -0.397805 1.5 0 1.5 
z
" id="m3005527c51" style="stroke:#9467bd;"/>
    </defs>
    <g clip-path="url(#p5eb1da3de0)">
     <use style="fill:#9467bd;stroke:#9467bd;" x="68.910852" xlink:href="#m3005527c51" y="224.123371"/>
     <use style="fill:#9467bd;stroke:#9467bd;" x="75.818396" xlink:href="#m3005527c51" y="264.688363"/>
     <use style="fill:#9467bd;stroke:#9467bd;" x="82.725939" xlink:href="#m3005527c51" y="262.922925"/>
     <use style="fill:#9467bd;stroke:#9467bd;" x="89.633483" xlink:href="#m3005527c51" y="267.706089"/>
     <use style="fill:#9467bd;stroke:#9467bd;" x="96.541026" xlink:href="#m3005527c51" y="255.542711"/>
     <use style="fill:#9467bd;stroke:#9467bd;" x="103.44857" xlink:href="#m3005527c51" y="265.818196"/>
     <use style="fill:#9467bd;stroke:#9467bd;" x="110.356113" xlink:href="#m3005527c51" y="261.738647"/>
     <use style="fill:#9467bd;stroke:#9467bd;" x="117.263657" xlink:href="#m3005527c51" y="263.70424"/>
     <use style="fill:#9467bd;stroke:#9467bd;" x="124.1712" xlink:href="#m3005527c51" y="250.383006"/>
     <use style="fill:#9467bd;stroke:#9467bd;" x="131.078744" xlink:href="#m3005527c51" y="267.606896"/>
     <use style="fill:#9467bd;stroke:#9467bd;" x="137.986287" xlink:href="#m3005527c51" y="268.416"/>
     <use style="fill:#9467bd;stroke:#9467bd;" x="144.893831" xlink:href="#m3005527c51" y="267.118881"/>
     <use style="fill:#9467bd;stroke:#9467bd;" x="151.801375" xlink:href="#m3005527c51" y="264.772827"/>
     <use style="fill:#9467bd;stroke:#9467bd;" x="158.708918" xlink:href="#m3005527c51" y="268.210327"/>
     <use style="fill:#9467bd;stroke:#9467bd;" x="165.616462" xlink:href="#m3005527c51" y="267.118881"/>
     <use style="fill:#9467bd;stroke:#9467bd;" x="172.524005" xlink:href="#m3005527c51" y="266.364293"/>
     <use style="fill:#9467bd;stroke:#9467bd;" x="179.431549" xlink:href="#m3005527c51" y="260.830113"/>
     <use style="fill:#9467bd;stroke:#9467bd;" x="186.339092" xlink:href="#m3005527c51" y="258.891917"/>
     <use style="fill:#9467bd;stroke:#9467bd;" x="193.246636" xlink:href="#m3005527c51" y="262.173772"/>
     <use style="fill:#9467bd;stroke:#9467bd;" x="200.154179" xlink:href="#m3005527c51" y="260.29275"/>
     <use style="fill:#9467bd;stroke:#9467bd;" x="207.061723" xlink:href="#m3005527c51" y="254.027051"/>
     <use style="fill:#9467bd;stroke:#9467bd;" x="213.969266" xlink:href="#m3005527c51" y="251.987731"/>
     <use style="fill:#9467bd;stroke:#9467bd;" x="220.87681" xlink:href="#m3005527c51" y="254.263136"/>
     <use style="fill:#9467bd;stroke:#9467bd;" x="227.784353" xlink:href="#m3005527c51" y="253.42719"/>
     <use style="fill:#9467bd;stroke:#9467bd;" x="234.691897" xlink:href="#m3005527c51" y="246.275358"/>
     <use style="fill:#9467bd;stroke:#9467bd;" x="241.59944" xlink:href="#m3005527c51" y="247.154239"/>
     <use style="fill:#9467bd;stroke:#9467bd;" x="248.506984" xlink:href="#m3005527c51" y="247.122109"/>
     <use style="fill:#9467bd;stroke:#9467bd;" x="255.414527" xlink:href="#m3005527c51" y="254.074024"/>
     <use style="fill:#9467bd;stroke:#9467bd;" x="262.322071" xlink:href="#m3005527c51" y="244.468252"/>
     <use style="fill:#9467bd;stroke:#9467bd;" x="269.229614" xlink:href="#m3005527c51" y="247.511468"/>
     <use style="fill:#9467bd;stroke:#9467bd;" x="276.137158" xlink:href="#m3005527c51" y="247.348221"/>
     <use style="fill:#9467bd;stroke:#9467bd;" x="283.044701" xlink:href="#m3005527c51" y="252.412036"/>
     <use style="fill:#9467bd;stroke:#9467bd;" x="289.952245" xlink:href="#m3005527c51" y="255.13933"/>
     <use style="fill:#9467bd;stroke:#9467bd;" x="296.859788" xlink:href="#m3005527c51" y="254.074024"/>
     <use style="fill:#9467bd;stroke:#9467bd;" x="303.767332" xlink:href="#m3005527c51" y="259.642615"/>
     <use style="fill:#9467bd;stroke:#9467bd;" x="310.674875" xlink:href="#m3005527c51" y="253.609666"/>
     <use style="fill:#9467bd;stroke:#9467bd;" x="317.582419" xlink:href="#m3005527c51" y="252.113987"/>
     <use style="fill:#9467bd;stroke:#9467bd;" x="324.489963" xlink:href="#m3005527c51" y="253.933469"/>
     <use style="fill:#9467bd;stroke:#9467bd;" x="331.397506" xlink:href="#m3005527c51" y="254.168334"/>
     <use style="fill:#9467bd;stroke:#9467bd;" x="338.30505" xlink:href="#m3005527c51" y="254.990337"/>
     <use style="fill:#9467bd;stroke:#9467bd;" x="345.212593" xlink:href="#m3005527c51" y="239.018131"/>
     <use style="fill:#9467bd;stroke:#9467bd;" x="352.120137" xlink:href="#m3005527c51" y="244.974673"/>
     <use style="fill:#9467bd;stroke:#9467bd;" x="359.02768" xlink:href="#m3005527c51" y="244.468252"/>
     <use style="fill:#9467bd;stroke:#9467bd;" x="365.935224" xlink:href="#m3005527c51" y="244.635499"/>
     <use style="fill:#9467bd;stroke:#9467bd;" x="372.842767" xlink:href="#m3005527c51" y="260.029903"/>
     <use style="fill:#9467bd;stroke:#9467bd;" x="379.750311" xlink:href="#m3005527c51" y="263.466304"/>
     <use style="fill:#9467bd;stroke:#9467bd;" x="386.657854" xlink:href="#m3005527c51" y="262.395298"/>
     <use style="fill:#9467bd;stroke:#9467bd;" x="393.565398" xlink:href="#m3005527c51" y="260.160852"/>
    </g>
   </g>
   <g id="line2d_69">
    <path clip-path="url(#p5eb1da3de0)" d="M 68.910852 26.496 
L 75.818396 51.153853 
L 82.725939 51.155081 
L 89.633483 51.192336 
L 96.541026 51.624506 
L 103.44857 52.189721 
L 110.356113 52.160116 
L 117.263657 52.199868 
L 124.1712 51.754619 
L 131.078744 52.38081 
L 137.986287 52.371657 
L 144.893831 52.364554 
L 151.801375 51.230698 
L 158.708918 51.877849 
L 165.616462 51.867879 
L 172.524005 51.846592 
L 179.431549 51.316051 
L 186.339092 51.919394 
L 193.246636 51.923009 
L 200.154179 51.902481 
L 207.061723 50.504583 
L 213.969266 51.094984 
L 220.87681 51.079966 
L 227.784353 51.099121 
L 234.691897 50.181489 
L 241.59944 50.77851 
L 248.506984 50.815585 
L 255.414527 50.807488 
L 262.322071 50.543873 
L 269.229614 51.168325 
L 276.137158 51.099758 
L 283.044701 51.126535 
L 289.952245 50.495087 
L 296.859788 51.132597 
L 303.767332 51.111098 
L 310.674875 51.085927 
L 317.582419 50.285694 
L 324.489963 50.960872 
L 331.397506 50.956126 
L 338.30505 50.925718 
L 345.212593 49.791642 
L 352.120137 50.412772 
L 359.02768 50.311198 
L 365.935224 50.361575 
L 372.842767 31.53898 
L 379.750311 32.494342 
L 386.657854 32.479815 
L 393.565398 32.489755 
" style="fill:none;stroke:#8c564b;stroke-linecap:square;stroke-width:1.5;"/>
    <defs>
     <path d="M 0 1.5 
C 0.397805 1.5 0.77937 1.341951 1.06066 1.06066 
C 1.341951 0.77937 1.5 0.397805 1.5 0 
C 1.5 -0.397805 1.341951 -0.77937 1.06066 -1.06066 
C 0.77937 -1.341951 0.397805 -1.5 0 -1.5 
C -0.397805 -1.5 -0.77937 -1.341951 -1.06066 -1.06066 
C -1.341951 -0.77937 -1.5 -0.397805 -1.5 0 
C -1.5 0.397805 -1.341951 0.77937 -1.06066 1.06066 
C -0.77937 1.341951 -0.397805 1.5 0 1.5 
z
" id="m2b03f0ffe0" style="stroke:#8c564b;"/>
    </defs>
    <g clip-path="url(#p5eb1da3de0)">
     <use style="fill:#8c564b;stroke:#8c564b;" x="68.910852" xlink:href="#m2b03f0ffe0" y="26.496"/>
     <use style="fill:#8c564b;stroke:#8c564b;" x="75.818396" xlink:href="#m2b03f0ffe0" y="51.153853"/>
     <use style="fill:#8c564b;stroke:#8c564b;" x="82.725939" xlink:href="#m2b03f0ffe0" y="51.155081"/>
     <use style="fill:#8c564b;stroke:#8c564b;" x="89.633483" xlink:href="#m2b03f0ffe0" y="51.192336"/>
     <use style="fill:#8c564b;stroke:#8c564b;" x="96.541026" xlink:href="#m2b03f0ffe0" y="51.624506"/>
     <use style="fill:#8c564b;stroke:#8c564b;" x="103.44857" xlink:href="#m2b03f0ffe0" y="52.189721"/>
     <use style="fill:#8c564b;stroke:#8c564b;" x="110.356113" xlink:href="#m2b03f0ffe0" y="52.160116"/>
     <use style="fill:#8c564b;stroke:#8c564b;" x="117.263657" xlink:href="#m2b03f0ffe0" y="52.199868"/>
     <use style="fill:#8c564b;stroke:#8c564b;" x="124.1712" xlink:href="#m2b03f0ffe0" y="51.754619"/>
     <use style="fill:#8c564b;stroke:#8c564b;" x="131.078744" xlink:href="#m2b03f0ffe0" y="52.38081"/>
     <use style="fill:#8c564b;stroke:#8c564b;" x="137.986287" xlink:href="#m2b03f0ffe0" y="52.371657"/>
     <use style="fill:#8c564b;stroke:#8c564b;" x="144.893831" xlink:href="#m2b03f0ffe0" y="52.364554"/>
     <use style="fill:#8c564b;stroke:#8c564b;" x="151.801375" xlink:href="#m2b03f0ffe0" y="51.230698"/>
     <use style="fill:#8c564b;stroke:#8c564b;" x="158.708918" xlink:href="#m2b03f0ffe0" y="51.877849"/>
     <use style="fill:#8c564b;stroke:#8c564b;" x="165.616462" xlink:href="#m2b03f0ffe0" y="51.867879"/>
     <use style="fill:#8c564b;stroke:#8c564b;" x="172.524005" xlink:href="#m2b03f0ffe0" y="51.846592"/>
     <use style="fill:#8c564b;stroke:#8c564b;" x="179.431549" xlink:href="#m2b03f0ffe0" y="51.316051"/>
     <use style="fill:#8c564b;stroke:#8c564b;" x="186.339092" xlink:href="#m2b03f0ffe0" y="51.919394"/>
     <use style="fill:#8c564b;stroke:#8c564b;" x="193.246636" xlink:href="#m2b03f0ffe0" y="51.923009"/>
     <use style="fill:#8c564b;stroke:#8c564b;" x="200.154179" xlink:href="#m2b03f0ffe0" y="51.902481"/>
     <use style="fill:#8c564b;stroke:#8c564b;" x="207.061723" xlink:href="#m2b03f0ffe0" y="50.504583"/>
     <use style="fill:#8c564b;stroke:#8c564b;" x="213.969266" xlink:href="#m2b03f0ffe0" y="51.094984"/>
     <use style="fill:#8c564b;stroke:#8c564b;" x="220.87681" xlink:href="#m2b03f0ffe0" y="51.079966"/>
     <use style="fill:#8c564b;stroke:#8c564b;" x="227.784353" xlink:href="#m2b03f0ffe0" y="51.099121"/>
     <use style="fill:#8c564b;stroke:#8c564b;" x="234.691897" xlink:href="#m2b03f0ffe0" y="50.181489"/>
     <use style="fill:#8c564b;stroke:#8c564b;" x="241.59944" xlink:href="#m2b03f0ffe0" y="50.77851"/>
     <use style="fill:#8c564b;stroke:#8c564b;" x="248.506984" xlink:href="#m2b03f0ffe0" y="50.815585"/>
     <use style="fill:#8c564b;stroke:#8c564b;" x="255.414527" xlink:href="#m2b03f0ffe0" y="50.807488"/>
     <use style="fill:#8c564b;stroke:#8c564b;" x="262.322071" xlink:href="#m2b03f0ffe0" y="50.543873"/>
     <use style="fill:#8c564b;stroke:#8c564b;" x="269.229614" xlink:href="#m2b03f0ffe0" y="51.168325"/>
     <use style="fill:#8c564b;stroke:#8c564b;" x="276.137158" xlink:href="#m2b03f0ffe0" y="51.099758"/>
     <use style="fill:#8c564b;stroke:#8c564b;" x="283.044701" xlink:href="#m2b03f0ffe0" y="51.126535"/>
     <use style="fill:#8c564b;stroke:#8c564b;" x="289.952245" xlink:href="#m2b03f0ffe0" y="50.495087"/>
     <use style="fill:#8c564b;stroke:#8c564b;" x="296.859788" xlink:href="#m2b03f0ffe0" y="51.132597"/>
     <use style="fill:#8c564b;stroke:#8c564b;" x="303.767332" xlink:href="#m2b03f0ffe0" y="51.111098"/>
     <use style="fill:#8c564b;stroke:#8c564b;" x="310.674875" xlink:href="#m2b03f0ffe0" y="51.085927"/>
     <use style="fill:#8c564b;stroke:#8c564b;" x="317.582419" xlink:href="#m2b03f0ffe0" y="50.285694"/>
     <use style="fill:#8c564b;stroke:#8c564b;" x="324.489963" xlink:href="#m2b03f0ffe0" y="50.960872"/>
     <use style="fill:#8c564b;stroke:#8c564b;" x="331.397506" xlink:href="#m2b03f0ffe0" y="50.956126"/>
     <use style="fill:#8c564b;stroke:#8c564b;" x="338.30505" xlink:href="#m2b03f0ffe0" y="50.925718"/>
     <use style="fill:#8c564b;stroke:#8c564b;" x="345.212593" xlink:href="#m2b03f0ffe0" y="49.791642"/>
     <use style="fill:#8c564b;stroke:#8c564b;" x="352.120137" xlink:href="#m2b03f0ffe0" y="50.412772"/>
     <use style="fill:#8c564b;stroke:#8c564b;" x="359.02768" xlink:href="#m2b03f0ffe0" y="50.311198"/>
     <use style="fill:#8c564b;stroke:#8c564b;" x="365.935224" xlink:href="#m2b03f0ffe0" y="50.361575"/>
     <use style="fill:#8c564b;stroke:#8c564b;" x="372.842767" xlink:href="#m2b03f0ffe0" y="31.53898"/>
     <use style="fill:#8c564b;stroke:#8c564b;" x="379.750311" xlink:href="#m2b03f0ffe0" y="32.494342"/>
     <use style="fill:#8c564b;stroke:#8c564b;" x="386.657854" xlink:href="#m2b03f0ffe0" y="32.479815"/>
     <use style="fill:#8c564b;stroke:#8c564b;" x="393.565398" xlink:href="#m2b03f0ffe0" y="32.489755"/>
    </g>
   </g>
   <g id="line2d_70">
    <path clip-path="url(#p5eb1da3de0)" style="fill:none;stroke:#e377c2;stroke-linecap:square;stroke-width:1.5;"/>
    <defs>
     <path d="M 0 1.5 
C 0.397805 1.5 0.77937 1.341951 1.06066 1.06066 
C 1.341951 0.77937 1.5 0.397805 1.5 0 
C 1.5 -0.397805 1.341951 -0.77937 1.06066 -1.06066 
C 0.77937 -1.341951 0.397805 -1.5 0 -1.5 
C -0.397805 -1.5 -0.77937 -1.341951 -1.06066 -1.06066 
C -1.341951 -0.77937 -1.5 -0.397805 -1.5 0 
C -1.5 0.397805 -1.341951 0.77937 -1.06066 1.06066 
C -0.77937 1.341951 -0.397805 1.5 0 1.5 
z
" id="ma47e4a3dfb" style="stroke:#e377c2;"/>
    </defs>
    <g clip-path="url(#p5eb1da3de0)"/>
   </g>
   <g id="patch_3">
    <path d="M 52.678125 280.512 
L 52.678125 14.4 
" style="fill:none;stroke:#000000;stroke-linecap:square;stroke-linejoin:miter;stroke-width:0.8;"/>
   </g>
   <g id="patch_4">
    <path d="M 409.798125 280.512 
L 409.798125 14.4 
" style="fill:none;stroke:#000000;stroke-linecap:square;stroke-linejoin:miter;stroke-width:0.8;"/>
   </g>
   <g id="patch_5">
    <path d="M 52.678125 280.512 
L 409.798125 280.512 
" style="fill:none;stroke:#000000;stroke-linecap:square;stroke-linejoin:miter;stroke-width:0.8;"/>
   </g>
   <g id="patch_6">
    <path d="M 52.678125 14.4 
L 409.798125 14.4 
" style="fill:none;stroke:#000000;stroke-linecap:square;stroke-linejoin:miter;stroke-width:0.8;"/>
   </g>
   <g id="legend_1">
    <g id="patch_7">
     <path d="M 107.210781 377.05307 
L 355.265469 377.05307 
Q 357.265469 377.05307 357.265469 375.05307 
L 357.265469 316.78432 
Q 357.265469 314.78432 355.265469 314.78432 
L 107.210781 314.78432 
Q 105.210781 314.78432 105.210781 316.78432 
L 105.210781 375.05307 
Q 105.210781 377.05307 107.210781 377.05307 
z
" style="fill:#ffffff;opacity:0.8;stroke:#cccccc;stroke-linejoin:miter;"/>
    </g>
    <g id="line2d_71">
     <path d="M 109.210781 322.882757 
L 129.210781 322.882757 
" style="fill:none;stroke:#1f77b4;stroke-linecap:square;stroke-width:1.5;"/>
    </g>
    <g id="line2d_72">
     <g>
      <use style="fill:#1f77b4;stroke:#1f77b4;" x="119.210781" xlink:href="#mc9c10e69b5" y="322.882757"/>
     </g>
    </g>
    <g id="text_15">
     <!-- cancelled_write_bytes -->
     <defs>
      <path d="M 48.78125 52.59375 
L 48.78125 44.1875 
Q 44.96875 46.296875 41.140625 47.34375 
Q 37.3125 48.390625 33.40625 48.390625 
Q 24.65625 48.390625 19.8125 42.84375 
Q 14.984375 37.3125 14.984375 27.296875 
Q 14.984375 17.28125 19.8125 11.734375 
Q 24.65625 6.203125 33.40625 6.203125 
Q 37.3125 6.203125 41.140625 7.25 
Q 44.96875 8.296875 48.78125 10.40625 
L 48.78125 2.09375 
Q 45.015625 0.34375 40.984375 -0.53125 
Q 36.96875 -1.421875 32.421875 -1.421875 
Q 20.0625 -1.421875 12.78125 6.34375 
Q 5.515625 14.109375 5.515625 27.296875 
Q 5.515625 40.671875 12.859375 48.328125 
Q 20.21875 56 33.015625 56 
Q 37.15625 56 41.109375 55.140625 
Q 45.0625 54.296875 48.78125 52.59375 
z
" id="DejaVuSans-99"/>
      <path d="M 45.40625 46.390625 
L 45.40625 75.984375 
L 54.390625 75.984375 
L 54.390625 0 
L 45.40625 0 
L 45.40625 8.203125 
Q 42.578125 3.328125 38.25 0.953125 
Q 33.9375 -1.421875 27.875 -1.421875 
Q 17.96875 -1.421875 11.734375 6.484375 
Q 5.515625 14.40625 5.515625 27.296875 
Q 5.515625 40.1875 11.734375 48.09375 
Q 17.96875 56 27.875 56 
Q 33.9375 56 38.25 53.625 
Q 42.578125 51.265625 45.40625 46.390625 
z
M 14.796875 27.296875 
Q 14.796875 17.390625 18.875 11.75 
Q 22.953125 6.109375 30.078125 6.109375 
Q 37.203125 6.109375 41.296875 11.75 
Q 45.40625 17.390625 45.40625 27.296875 
Q 45.40625 37.203125 41.296875 42.84375 
Q 37.203125 48.484375 30.078125 48.484375 
Q 22.953125 48.484375 18.875 42.84375 
Q 14.796875 37.203125 14.796875 27.296875 
z
" id="DejaVuSans-100"/>
      <path d="M 50.984375 -16.609375 
L 50.984375 -23.578125 
L -0.984375 -23.578125 
L -0.984375 -16.609375 
z
" id="DejaVuSans-95"/>
      <path d="M 4.203125 54.6875 
L 13.1875 54.6875 
L 24.421875 12.015625 
L 35.59375 54.6875 
L 46.1875 54.6875 
L 57.421875 12.015625 
L 68.609375 54.6875 
L 77.59375 54.6875 
L 63.28125 0 
L 52.6875 0 
L 40.921875 44.828125 
L 29.109375 0 
L 18.5 0 
z
" id="DejaVuSans-119"/>
      <path d="M 41.109375 46.296875 
Q 39.59375 47.171875 37.8125 47.578125 
Q 36.03125 48 33.890625 48 
Q 26.265625 48 22.1875 43.046875 
Q 18.109375 38.09375 18.109375 28.8125 
L 18.109375 0 
L 9.078125 0 
L 9.078125 54.6875 
L 18.109375 54.6875 
L 18.109375 46.1875 
Q 20.953125 51.171875 25.484375 53.578125 
Q 30.03125 56 36.53125 56 
Q 37.453125 56 38.578125 55.875 
Q 39.703125 55.765625 41.0625 55.515625 
z
" id="DejaVuSans-114"/>
      <path d="M 9.421875 54.6875 
L 18.40625 54.6875 
L 18.40625 0 
L 9.421875 0 
z
M 9.421875 75.984375 
L 18.40625 75.984375 
L 18.40625 64.59375 
L 9.421875 64.59375 
z
" id="DejaVuSans-105"/>
      <path d="M 18.3125 70.21875 
L 18.3125 54.6875 
L 36.8125 54.6875 
L 36.8125 47.703125 
L 18.3125 47.703125 
L 18.3125 18.015625 
Q 18.3125 11.328125 20.140625 9.421875 
Q 21.96875 7.515625 27.59375 7.515625 
L 36.8125 7.515625 
L 36.8125 0 
L 27.59375 0 
Q 17.1875 0 13.234375 3.875 
Q 9.28125 7.765625 9.28125 18.015625 
L 9.28125 47.703125 
L 2.6875 47.703125 
L 2.6875 54.6875 
L 9.28125 54.6875 
L 9.28125 70.21875 
z
" id="DejaVuSans-116"/>
      <path d="M 48.6875 27.296875 
Q 48.6875 37.203125 44.609375 42.84375 
Q 40.53125 48.484375 33.40625 48.484375 
Q 26.265625 48.484375 22.1875 42.84375 
Q 18.109375 37.203125 18.109375 27.296875 
Q 18.109375 17.390625 22.1875 11.75 
Q 26.265625 6.109375 33.40625 6.109375 
Q 40.53125 6.109375 44.609375 11.75 
Q 48.6875 17.390625 48.6875 27.296875 
z
M 18.109375 46.390625 
Q 20.953125 51.265625 25.265625 53.625 
Q 29.59375 56 35.59375 56 
Q 45.5625 56 51.78125 48.09375 
Q 58.015625 40.1875 58.015625 27.296875 
Q 58.015625 14.40625 51.78125 6.484375 
Q 45.5625 -1.421875 35.59375 -1.421875 
Q 29.59375 -1.421875 25.265625 0.953125 
Q 20.953125 3.328125 18.109375 8.203125 
L 18.109375 0 
L 9.078125 0 
L 9.078125 75.984375 
L 18.109375 75.984375 
z
" id="DejaVuSans-98"/>
      <path d="M 32.171875 -5.078125 
Q 28.375 -14.84375 24.75 -17.8125 
Q 21.140625 -20.796875 15.09375 -20.796875 
L 7.90625 -20.796875 
L 7.90625 -13.28125 
L 13.1875 -13.28125 
Q 16.890625 -13.28125 18.9375 -11.515625 
Q 21 -9.765625 23.484375 -3.21875 
L 25.09375 0.875 
L 2.984375 54.6875 
L 12.5 54.6875 
L 29.59375 11.921875 
L 46.6875 54.6875 
L 56.203125 54.6875 
z
" id="DejaVuSans-121"/>
      <path d="M 44.28125 53.078125 
L 44.28125 44.578125 
Q 40.484375 46.53125 36.375 47.5 
Q 32.28125 48.484375 27.875 48.484375 
Q 21.1875 48.484375 17.84375 46.4375 
Q 14.5 44.390625 14.5 40.28125 
Q 14.5 37.15625 16.890625 35.375 
Q 19.28125 33.59375 26.515625 31.984375 
L 29.59375 31.296875 
Q 39.15625 29.25 43.1875 25.515625 
Q 47.21875 21.78125 47.21875 15.09375 
Q 47.21875 7.46875 41.1875 3.015625 
Q 35.15625 -1.421875 24.609375 -1.421875 
Q 20.21875 -1.421875 15.453125 -0.5625 
Q 10.6875 0.296875 5.421875 2 
L 5.421875 11.28125 
Q 10.40625 8.6875 15.234375 7.390625 
Q 20.0625 6.109375 24.8125 6.109375 
Q 31.15625 6.109375 34.5625 8.28125 
Q 37.984375 10.453125 37.984375 14.40625 
Q 37.984375 18.0625 35.515625 20.015625 
Q 33.0625 21.96875 24.703125 23.78125 
L 21.578125 24.515625 
Q 13.234375 26.265625 9.515625 29.90625 
Q 5.8125 33.546875 5.8125 39.890625 
Q 5.8125 47.609375 11.28125 51.796875 
Q 16.75 56 26.8125 56 
Q 31.78125 56 36.171875 55.265625 
Q 40.578125 54.546875 44.28125 53.078125 
z
" id="DejaVuSans-115"/>
     </defs>
     <g transform="translate(137.210781 326.382757)scale(0.1 -0.1)">
      <use xlink:href="#DejaVuSans-99"/>
      <use x="54.980469" xlink:href="#DejaVuSans-97"/>
      <use x="116.259766" xlink:href="#DejaVuSans-110"/>
      <use x="179.638672" xlink:href="#DejaVuSans-99"/>
      <use x="234.619141" xlink:href="#DejaVuSans-101"/>
      <use x="296.142578" xlink:href="#DejaVuSans-108"/>
      <use x="323.925781" xlink:href="#DejaVuSans-108"/>
      <use x="351.708984" xlink:href="#DejaVuSans-101"/>
      <use x="413.232422" xlink:href="#DejaVuSans-100"/>
      <use x="476.708984" xlink:href="#DejaVuSans-95"/>
      <use x="526.708984" xlink:href="#DejaVuSans-119"/>
      <use x="608.496094" xlink:href="#DejaVuSans-114"/>
      <use x="649.609375" xlink:href="#DejaVuSans-105"/>
      <use x="677.392578" xlink:href="#DejaVuSans-116"/>
      <use x="716.601562" xlink:href="#DejaVuSans-101"/>
      <use x="778.125" xlink:href="#DejaVuSans-95"/>
      <use x="828.125" xlink:href="#DejaVuSans-98"/>
      <use x="891.601562" xlink:href="#DejaVuSans-121"/>
      <use x="950.78125" xlink:href="#DejaVuSans-116"/>
      <use x="989.990234" xlink:href="#DejaVuSans-101"/>
      <use x="1051.513672" xlink:href="#DejaVuSans-115"/>
     </g>
    </g>
    <g id="line2d_73">
     <path d="M 109.210781 337.839007 
L 129.210781 337.839007 
" style="fill:none;stroke:#ff7f0e;stroke-linecap:square;stroke-width:1.5;"/>
    </g>
    <g id="line2d_74">
     <g>
      <use style="fill:#ff7f0e;stroke:#ff7f0e;" x="119.210781" xlink:href="#ma8efe8b72b" y="337.839007"/>
     </g>
    </g>
    <g id="text_16">
     <!-- rchar -->
     <defs>
      <path d="M 54.890625 33.015625 
L 54.890625 0 
L 45.90625 0 
L 45.90625 32.71875 
Q 45.90625 40.484375 42.875 44.328125 
Q 39.84375 48.1875 33.796875 48.1875 
Q 26.515625 48.1875 22.3125 43.546875 
Q 18.109375 38.921875 18.109375 30.90625 
L 18.109375 0 
L 9.078125 0 
L 9.078125 75.984375 
L 18.109375 75.984375 
L 18.109375 46.1875 
Q 21.34375 51.125 25.703125 53.5625 
Q 30.078125 56 35.796875 56 
Q 45.21875 56 50.046875 50.171875 
Q 54.890625 44.34375 54.890625 33.015625 
z
" id="DejaVuSans-104"/>
     </defs>
     <g transform="translate(137.210781 341.339007)scale(0.1 -0.1)">
      <use xlink:href="#DejaVuSans-114"/>
      <use x="38.863281" xlink:href="#DejaVuSans-99"/>
      <use x="93.84375" xlink:href="#DejaVuSans-104"/>
      <use x="157.222656" xlink:href="#DejaVuSans-97"/>
      <use x="218.501953" xlink:href="#DejaVuSans-114"/>
     </g>
    </g>
    <g id="line2d_75">
     <path d="M 109.210781 352.517132 
L 129.210781 352.517132 
" style="fill:none;stroke:#2ca02c;stroke-linecap:square;stroke-width:1.5;"/>
    </g>
    <g id="line2d_76">
     <g>
      <use style="fill:#2ca02c;stroke:#2ca02c;" x="119.210781" xlink:href="#m83a9146de7" y="352.517132"/>
     </g>
    </g>
    <g id="text_17">
     <!-- read_bytes -->
     <g transform="translate(137.210781 356.017132)scale(0.1 -0.1)">
      <use xlink:href="#DejaVuSans-114"/>
      <use x="38.863281" xlink:href="#DejaVuSans-101"/>
      <use x="100.386719" xlink:href="#DejaVuSans-97"/>
      <use x="161.666016" xlink:href="#DejaVuSans-100"/>
      <use x="225.142578" xlink:href="#DejaVuSans-95"/>
      <use x="275.142578" xlink:href="#DejaVuSans-98"/>
      <use x="338.619141" xlink:href="#DejaVuSans-121"/>
      <use x="397.798828" xlink:href="#DejaVuSans-116"/>
      <use x="437.007812" xlink:href="#DejaVuSans-101"/>
      <use x="498.53125" xlink:href="#DejaVuSans-115"/>
     </g>
    </g>
    <g id="line2d_77">
     <path d="M 109.210781 367.473382 
L 129.210781 367.473382 
" style="fill:none;stroke:#d62728;stroke-linecap:square;stroke-width:1.5;"/>
    </g>
    <g id="line2d_78">
     <g>
      <use style="fill:#d62728;stroke:#d62728;" x="119.210781" xlink:href="#m38276a4fc9" y="367.473382"/>
     </g>
    </g>
    <g id="text_18">
     <!-- syscr -->
     <g transform="translate(137.210781 370.973382)scale(0.1 -0.1)">
      <use xlink:href="#DejaVuSans-115"/>
      <use x="52.099609" xlink:href="#DejaVuSans-121"/>
      <use x="111.279297" xlink:href="#DejaVuSans-115"/>
      <use x="163.378906" xlink:href="#DejaVuSans-99"/>
      <use x="218.359375" xlink:href="#DejaVuSans-114"/>
     </g>
    </g>
    <g id="line2d_79">
     <path d="M 267.574844 322.882757 
L 287.574844 322.882757 
" style="fill:none;stroke:#9467bd;stroke-linecap:square;stroke-width:1.5;"/>
    </g>
    <g id="line2d_80">
     <g>
      <use style="fill:#9467bd;stroke:#9467bd;" x="277.574844" xlink:href="#m3005527c51" y="322.882757"/>
     </g>
    </g>
    <g id="text_19">
     <!-- syscw -->
     <g transform="translate(295.574844 326.382757)scale(0.1 -0.1)">
      <use xlink:href="#DejaVuSans-115"/>
      <use x="52.099609" xlink:href="#DejaVuSans-121"/>
      <use x="111.279297" xlink:href="#DejaVuSans-115"/>
      <use x="163.378906" xlink:href="#DejaVuSans-99"/>
      <use x="218.359375" xlink:href="#DejaVuSans-119"/>
     </g>
    </g>
    <g id="line2d_81">
     <path d="M 267.574844 337.560882 
L 287.574844 337.560882 
" style="fill:none;stroke:#8c564b;stroke-linecap:square;stroke-width:1.5;"/>
    </g>
    <g id="line2d_82">
     <g>
      <use style="fill:#8c564b;stroke:#8c564b;" x="277.574844" xlink:href="#m2b03f0ffe0" y="337.560882"/>
     </g>
    </g>
    <g id="text_20">
     <!-- wchar -->
     <g transform="translate(295.574844 341.060882)scale(0.1 -0.1)">
      <use xlink:href="#DejaVuSans-119"/>
      <use x="81.787109" xlink:href="#DejaVuSans-99"/>
      <use x="136.767578" xlink:href="#DejaVuSans-104"/>
      <use x="200.146484" xlink:href="#DejaVuSans-97"/>
      <use x="261.425781" xlink:href="#DejaVuSans-114"/>
     </g>
    </g>
    <g id="line2d_83">
     <path d="M 267.574844 352.239007 
L 287.574844 352.239007 
" style="fill:none;stroke:#e377c2;stroke-linecap:square;stroke-width:1.5;"/>
    </g>
    <g id="line2d_84">
     <g>
      <use style="fill:#e377c2;stroke:#e377c2;" x="277.574844" xlink:href="#ma47e4a3dfb" y="352.239007"/>
     </g>
    </g>
    <g id="text_21">
     <!-- write_bytes -->
     <g transform="translate(295.574844 355.739007)scale(0.1 -0.1)">
      <use xlink:href="#DejaVuSans-119"/>
      <use x="81.787109" xlink:href="#DejaVuSans-114"/>
      <use x="122.900391" xlink:href="#DejaVuSans-105"/>
      <use x="150.683594" xlink:href="#DejaVuSans-116"/>
      <use x="189.892578" xlink:href="#DejaVuSans-101"/>
      <use x="251.416016" xlink:href="#DejaVuSans-95"/>
      <use x="301.416016" xlink:href="#DejaVuSans-98"/>
      <use x="364.892578" xlink:href="#DejaVuSans-121"/>
      <use x="424.072266" xlink:href="#DejaVuSans-116"/>
      <use x="463.28125" xlink:href="#DejaVuSans-101"/>
      <use x="524.804688" xlink:href="#DejaVuSans-115"/>
     </g>
    </g>
   </g>
  </g>
 </g>
 <defs>
  <clipPath id="p5eb1da3de0">
   <rect height="266.112" width="357.12" x="52.678125" y="14.4"/>
  </clipPath>
 </defs>
</svg>
